<svg width="152" height="44" viewBox="0 0 152 44" fill="none" xmlns="http://www.w3.org/2000/svg">
    <path d="M148.324 5.3312C148.378 5.3312 148.413 5.32851 148.429 5.32312C148.456 5.31852 148.482 5.30403 148.505 5.28122C148.528 5.25842 148.546 5.22818 148.558 5.19379L150.345 0.432864C150.396 0.296891 150.494 0.183258 150.62 0.111687C150.747 0.0401165 150.894 0.0151263 151.038 0.0410543C151.181 0.0669822 151.31 0.142192 151.404 0.253628C151.497 0.365065 151.548 0.505694 151.549 0.651107V6.65683C151.549 6.73615 151.518 6.81222 151.464 6.8683C151.409 6.92439 151.335 6.9559 151.258 6.9559H150.975C150.934 6.9559 150.895 6.93972 150.866 6.91092C150.838 6.88212 150.821 6.84305 150.821 6.80232L150.652 2.59104C150.652 2.53692 150.635 2.48419 150.602 2.44073C150.57 2.39728 150.525 2.36543 150.473 2.34996C150.421 2.3345 150.365 2.33623 150.315 2.35492C150.264 2.37361 150.22 2.40824 150.191 2.45363C150.18 2.4698 149.728 3.81159 148.833 6.479C148.758 6.70533 148.588 6.81849 148.324 6.81849C148.06 6.81849 147.89 6.70533 147.815 6.479C146.931 3.8062 146.484 2.46171 146.473 2.44555C146.443 2.40016 146.4 2.36553 146.349 2.34684C146.298 2.32815 146.243 2.32641 146.191 2.34188C146.139 2.35735 146.094 2.38919 146.061 2.43265C146.029 2.47611 146.012 2.52884 146.012 2.58296L145.826 6.79424C145.826 6.83497 145.81 6.87403 145.781 6.90283C145.752 6.93164 145.713 6.94782 145.673 6.94782L145.39 6.93973C145.351 6.93974 145.314 6.93202 145.278 6.91699C145.243 6.90197 145.211 6.87994 145.184 6.85217C145.157 6.8244 145.135 6.79142 145.121 6.75513C145.106 6.71884 145.099 6.67994 145.099 6.64066L145.123 0.634941C145.12 0.486176 145.17 0.34126 145.265 0.226456C145.36 0.111652 145.492 0.0345578 145.639 0.00914563C145.785 -0.0162665 145.936 0.0116851 146.064 0.0879346C146.192 0.164184 146.288 0.283686 146.335 0.424781L148.097 5.19379C148.109 5.22823 148.128 5.25851 148.151 5.28131C148.174 5.30411 148.2 5.31858 148.227 5.32312C148.243 5.32851 148.275 5.3312 148.324 5.3312Z" fill="black" />
    <path d="M143.806 0.149443C143.841 0.14887 143.876 0.156886 143.908 0.172846C143.939 0.188807 143.967 0.212269 143.988 0.241349C144.009 0.270429 144.024 0.304317 144.03 0.340295C144.036 0.376272 144.034 0.413337 144.024 0.448516L143.959 0.666759C143.943 0.722583 143.91 0.771729 143.865 0.80674C143.82 0.841751 143.765 0.860715 143.709 0.860753H142.44C142.311 0.860753 142.188 0.910998 142.097 1.00043C142.006 1.08987 141.955 1.21117 141.955 1.33765V6.64823C141.955 6.68644 141.947 6.72428 141.932 6.75959C141.918 6.79489 141.896 6.82697 141.869 6.85399C141.842 6.88101 141.81 6.90245 141.775 6.91707C141.74 6.93169 141.702 6.93922 141.664 6.93922H141.397C141.311 6.93922 141.229 6.9043 141.168 6.84215C141.108 6.78 141.073 6.69571 141.073 6.60781V1.35382C141.073 1.21876 141.02 1.08924 140.924 0.993738C140.829 0.898238 140.699 0.844587 140.564 0.844587H139.061C138.981 0.844587 138.905 0.813077 138.849 0.75699C138.793 0.700903 138.762 0.624832 138.762 0.545513V0.32727C138.762 0.280107 138.78 0.234876 138.814 0.201527C138.847 0.168178 138.892 0.149443 138.94 0.149443H143.806Z" fill="black" />
    <path d="M7.08077 27.3341L0.404153 23.4704C0.281532 23.4014 0.179469 23.3007 0.108443 23.1786C0.037418 23.0564 -1.07102e-05 22.9172 2.29888e-09 22.7753V15.1125C0.000200393 14.9525 0.0420423 14.7954 0.121409 14.6565C0.200776 14.5176 0.314934 14.4018 0.452652 14.3204L6.87061 10.6183C7.00332 10.5417 7.15386 10.5014 7.30709 10.5014C7.46033 10.5014 7.61087 10.5417 7.74358 10.6183L14.1777 14.3285C14.3204 14.4117 14.4388 14.5301 14.521 14.6719C14.6033 14.8138 14.6466 14.974 14.6465 15.1368V22.1852C14.6467 22.3452 14.6886 22.5023 14.7679 22.6412C14.8473 22.7801 14.9615 22.896 15.0992 22.9773L16.4733 23.7695C16.606 23.8461 16.7565 23.8864 16.9098 23.8864C17.063 23.8864 17.2136 23.8461 17.3463 23.7695L26.4155 18.5317C26.5261 18.4678 26.618 18.3759 26.6819 18.2652C26.7457 18.1545 26.7793 18.0289 26.7792 17.9012V15.2823C26.7796 15.1378 26.7416 14.9959 26.6692 14.8709C26.5967 14.746 26.4925 14.6424 26.367 14.5709L21.6869 11.8631C21.5741 11.7989 21.4803 11.7061 21.415 11.5939C21.3497 11.4818 21.3152 11.3543 21.3151 11.2246V5.29159C21.3153 5.13446 21.3566 4.9806 21.4347 4.8457C21.5128 4.71079 21.6249 4.59968 21.7596 4.5237L26.8681 1.57338C26.9716 1.51456 27.0886 1.48364 27.2076 1.48364C27.3266 1.48364 27.4436 1.51456 27.5471 1.57338L32.7122 4.55603C32.8399 4.62976 32.946 4.7358 33.0197 4.86349C33.0935 4.99118 33.1324 5.13603 33.1325 5.2835V11.2165C33.1327 11.3488 33.0977 11.4789 33.031 11.5939C32.9643 11.7088 32.8683 11.8045 32.7526 11.8712L28.1129 14.5548C27.9754 14.6333 27.861 14.7472 27.7815 14.8849C27.702 15.0226 27.6602 15.1792 27.6603 15.3388V17.8203C27.6604 17.9678 27.6992 18.1127 27.773 18.2404C27.8468 18.368 27.9529 18.4741 28.0806 18.5478L37.5863 24.0443C37.7089 24.1133 37.811 24.214 37.882 24.3362C37.953 24.4583 37.9904 24.5975 37.9904 24.7394V36.5569C37.9907 36.7138 37.9497 36.8681 37.8717 37.0042C37.7937 37.1404 37.6813 37.2537 37.5459 37.3329L27.5228 43.1203C27.4224 43.1793 27.308 43.2104 27.1914 43.2104C27.0749 43.2104 26.9605 43.1793 26.86 43.1203L16.7804 37.3005C16.6549 37.2271 16.5507 37.122 16.4784 36.9958C16.4061 36.8696 16.3681 36.7266 16.3682 36.5811V25.8549C16.3676 25.4891 16.2708 25.13 16.0875 24.8134C15.9042 24.4969 15.6409 24.2341 15.324 24.0515C15.0071 23.8689 14.6477 23.7728 14.2819 23.773C13.9161 23.7731 13.5568 23.8695 13.2401 24.0524L7.55767 27.3341C7.48659 27.376 7.4051 27.398 7.32138 27.398C7.23767 27.398 7.15469 27.376 7.08077 27.3341ZM24.7504 3.97405C23.2954 4.8093 22.5221 5.30237 22.4305 5.45325C22.3443 5.60952 22.2958 6.5256 22.285 8.20149C22.2796 9.88277 22.3227 10.8015 22.4143 10.9578C22.5006 11.1087 23.2712 11.6072 24.7261 12.4532C26.1757 13.2992 26.9894 13.7222 27.1672 13.7222C27.345 13.7222 28.1641 13.3046 29.6244 12.4694C31.0794 11.6341 31.8527 11.141 31.9443 10.9902C32.0305 10.8393 32.079 9.92319 32.0898 8.24191C32.0952 6.56063 32.0521 5.64185 31.9605 5.48558C31.8742 5.3347 31.1036 4.83624 29.6487 3.99021C28.1991 3.14419 27.3854 2.72117 27.2076 2.72117C27.0298 2.72117 26.2107 3.1388 24.7504 3.97405ZM4.23553 13.504C2.32253 14.5979 1.32562 15.2149 1.24479 15.355C1.15318 15.5113 1.10199 16.6914 1.09121 18.8954C1.08044 21.094 1.11546 22.266 1.19629 22.4115C1.28251 22.5678 2.27673 23.201 4.17895 24.311C6.08116 25.4211 7.11579 25.9762 7.28284 25.9762C7.46067 25.9815 8.50608 25.4373 10.4191 24.3434C12.3321 23.2495 13.3317 22.6325 13.4179 22.4924C13.5041 22.3361 13.5526 21.1586 13.5634 18.9601C13.5742 16.7561 13.5391 15.5813 13.4583 15.4358C13.3721 15.2796 12.3779 14.6464 10.4757 13.5363C8.57344 12.4262 7.53881 11.8712 7.37176 11.8712C7.19393 11.8712 6.14852 12.4155 4.23553 13.504ZM22.5113 22.5974C19.526 24.3218 17.9983 25.2433 17.9282 25.3618C17.869 25.4696 17.8393 27.2452 17.8393 30.6886C17.8393 34.132 17.8717 35.9129 17.9363 36.0315C18.001 36.1393 19.5233 37.0554 22.5033 38.7797C25.4886 40.5041 27.0486 41.3663 27.1834 41.3663C27.3073 41.3663 28.8619 40.5041 31.8473 38.7797C34.8326 37.0607 36.3576 36.142 36.4223 36.0234C36.487 35.9156 36.5193 34.1374 36.5193 30.6886C36.5193 27.2452 36.4843 25.4642 36.4142 25.3457C36.3549 25.2379 34.8326 24.3218 31.8473 22.5974C28.8673 20.8784 27.3073 20.0189 27.1672 20.0189C27.0433 20.0189 25.4913 20.8784 22.5113 22.5974Z" fill="black" />
    <path d="M27.2397 3.71509C27.2558 3.71509 27.272 3.71509 27.2882 3.71509C27.3297 3.71502 27.364 3.72074 27.3852 3.73126L30.772 5.58228C30.8942 5.64911 30.9971 5.74673 31.0708 5.86568C31.1444 5.98464 31.1863 6.1209 31.1923 6.26126C31.2031 6.51992 31.2058 7.17734 31.2004 8.23353C31.2004 9.28972 31.1923 9.94984 31.1761 10.2139C31.1666 10.3522 31.1222 10.4857 31.0473 10.6017C30.9723 10.7176 30.8692 10.8123 30.7477 10.8767L27.3448 12.7035C27.3254 12.7134 27.2941 12.7191 27.2558 12.7196C27.2343 12.7196 27.2154 12.7196 27.1993 12.7196C27.1831 12.7196 27.1669 12.7196 27.1508 12.7196C27.1092 12.7197 27.0749 12.714 27.0538 12.7035L23.667 10.8524C23.5458 10.7863 23.4436 10.69 23.3701 10.5725C23.2965 10.4551 23.254 10.3205 23.2466 10.1816C23.2359 9.92289 23.2305 9.26277 23.2305 8.2012C23.2359 7.14501 23.2466 6.48759 23.2628 6.22893C23.271 6.08917 23.3147 5.95404 23.3898 5.83654C23.4648 5.71904 23.5686 5.62313 23.6912 5.55803L27.0861 3.73126C27.1069 3.72059 27.1413 3.71486 27.1831 3.71509C27.1993 3.71509 27.2181 3.71509 27.2397 3.71509Z" fill="black" />
    <path d="M49.8329 14.0855C51.1477 14.0855 51.9183 14.072 52.1446 14.0451C52.2782 14.0275 52.4009 13.9622 52.4901 13.8611C52.5793 13.7601 52.6288 13.6302 52.6296 13.4954V9.86613C52.6288 9.78389 52.6578 9.70415 52.7113 9.64171C52.7648 9.57927 52.8392 9.53838 52.9206 9.52664C53.2331 9.48353 53.4514 9.47544 53.5753 9.50239C53.6714 9.52078 53.76 9.5673 53.8304 9.63624C53.9008 9.70518 53.9498 9.79351 53.9714 9.89037C53.9714 9.90115 53.9714 11.5016 53.9714 14.6917C53.9714 17.8818 53.9687 19.4823 53.9633 19.4931C53.9423 19.5888 53.8945 19.6764 53.8257 19.7452C53.7568 19.8141 53.6699 19.8612 53.5753 19.881C53.4514 19.908 53.2331 19.8999 52.9206 19.8568C52.8392 19.8451 52.7648 19.8042 52.7113 19.7417C52.6578 19.6793 52.6288 19.5995 52.6296 19.5173V15.888C52.6288 15.7533 52.5793 15.6234 52.4901 15.5223C52.4009 15.4213 52.2782 15.3559 52.1446 15.3384C51.9183 15.3114 51.1477 15.2979 49.8329 15.2979C48.518 15.2926 47.7474 15.306 47.5211 15.3384C47.3875 15.3559 47.2648 15.4213 47.1756 15.5223C47.0865 15.6234 47.0369 15.7533 47.0361 15.888V19.5173C47.037 19.5995 47.0079 19.6793 46.9544 19.7417C46.9009 19.8042 46.8265 19.8451 46.7451 19.8568C46.4326 19.8999 46.2143 19.908 46.0904 19.881C45.9958 19.8612 45.9089 19.8141 45.8401 19.7452C45.7712 19.6764 45.7234 19.5888 45.7024 19.4931C45.697 19.4769 45.6943 17.8764 45.6943 14.6917C45.6997 11.5016 45.7024 9.89846 45.7024 9.88229C45.724 9.78543 45.773 9.6971 45.8434 9.62816C45.9138 9.55923 46.0024 9.5127 46.0985 9.4943C46.2224 9.46736 46.4407 9.47544 46.7532 9.51855C46.8346 9.5303 46.909 9.57119 46.9625 9.63363C47.016 9.69607 47.0451 9.77581 47.0442 9.85804L47.0361 13.4873C47.0352 13.6247 47.085 13.7576 47.176 13.8605C47.267 13.9634 47.3927 14.0291 47.5292 14.0451C47.7501 14.072 48.518 14.0855 49.8329 14.0855Z" fill="black" />
    <path d="M60.9717 20.2038C59.5997 20.2062 58.2829 19.6353 57.311 18.6169C56.339 17.5984 55.7916 16.2157 55.7891 14.7729C55.7878 14.0586 55.9204 13.3509 56.1792 12.6905C56.438 12.03 56.8181 11.4297 57.2975 10.9237C57.777 10.4177 58.3466 10.016 58.9738 9.74151C59.601 9.46704 60.2734 9.32516 60.9528 9.32398C62.3248 9.3216 63.6416 9.89243 64.6135 10.9109C65.5854 11.9294 66.1329 13.3121 66.1354 14.7548C66.1367 15.4692 66.0041 16.1768 65.7453 16.8373C65.4864 17.4978 65.1064 18.0981 64.6269 18.6041C64.1474 19.1101 63.5778 19.5118 62.9507 19.7863C62.3235 20.0607 61.6511 20.2026 60.9717 20.2038ZM60.9791 18.9913C61.976 18.9931 62.9328 18.5485 63.639 17.7554C64.3453 16.9623 64.7432 15.8857 64.7451 14.7624C64.7461 14.2061 64.6498 13.6552 64.4618 13.141C64.2738 12.6268 63.9978 12.1594 63.6494 11.7655C63.3011 11.3715 62.8873 11.0588 62.4317 10.8452C61.976 10.6315 61.4874 10.5211 60.9938 10.5203C59.997 10.5185 59.0402 10.9631 58.3339 11.7562C57.6277 12.5493 57.2298 13.6259 57.2279 14.7493C57.2269 15.3055 57.3232 15.8564 57.5111 16.3706C57.6991 16.8848 57.9752 17.3522 58.3235 17.7462C58.6719 18.1401 59.0857 18.4528 59.5413 18.6664C59.997 18.8801 60.4855 18.9905 60.9791 18.9913Z" fill="black" />
    <path d="M71.5831 15.0793C70.8448 13.9099 70.1227 12.746 69.4168 11.5874C69.3963 11.559 69.3676 11.5376 69.3345 11.5262C69.3014 11.5147 69.2655 11.5138 69.2319 11.5236C69.1982 11.5333 69.1684 11.5532 69.1465 11.5806C69.1247 11.6079 69.1118 11.6413 69.1096 11.6763V19.5411C69.1096 19.6547 69.0645 19.7637 68.9842 19.8441C68.9038 19.9244 68.7949 19.9695 68.6812 19.9695H68.3903C68.2616 19.9695 68.1383 19.9184 68.0473 19.8275C67.9564 19.7365 67.9053 19.6132 67.9053 19.4845V10.383C67.9065 10.179 67.9731 9.98082 68.0953 9.81749C68.2175 9.65415 68.3889 9.5343 68.5842 9.47552C68.7795 9.41674 68.9886 9.42213 69.1806 9.4909C69.3727 9.55967 69.5376 9.6882 69.6512 9.85761C69.8614 10.1755 70.8179 11.6898 72.5207 14.4003C73.2536 15.5643 73.973 16.7282 74.6789 17.8922C74.6981 17.9241 74.7272 17.9488 74.7618 17.9626C74.7964 17.9763 74.8346 17.9782 74.8705 17.9681C74.9063 17.958 74.9378 17.9364 74.9602 17.9066C74.9825 17.8768 74.9944 17.8405 74.9941 17.8033V9.93844C74.9941 9.82482 75.0393 9.71586 75.1196 9.63552C75.1999 9.55518 75.3089 9.51004 75.4225 9.51004H75.7135C75.8421 9.51004 75.9655 9.56114 76.0564 9.65209C76.1474 9.74304 76.1985 9.8664 76.1985 9.99503V19.0966C76.1956 19.2999 76.1277 19.4969 76.0049 19.6589C75.8821 19.821 75.7107 19.9395 75.5158 19.9973C75.3208 20.055 75.1125 20.049 74.9213 19.98C74.73 19.911 74.5658 19.7828 74.4526 19.6139C74.2424 19.2959 73.2859 17.7844 71.5831 15.0793Z" fill="black" />
    <path d="M86.0609 14.7153C86.0609 14.8446 86.034 14.9658 85.9801 15.079C85.951 15.1399 85.9051 15.1912 85.8478 15.227C85.7906 15.2628 85.7243 15.2816 85.6568 15.2811H80.4432C80.3575 15.2811 80.2752 15.3151 80.2146 15.3758C80.154 15.4364 80.1199 15.5186 80.1199 15.6044V18.4335C80.1199 18.5235 80.1556 18.6099 80.2193 18.6735C80.283 18.7372 80.3693 18.773 80.4594 18.773H86.3277C86.4242 18.773 86.5167 18.8113 86.5849 18.8795C86.6531 18.9477 86.6914 19.0402 86.6914 19.1367V19.3711C86.6914 19.519 86.6335 19.6609 86.5304 19.7655C86.4274 19.8701 86.2875 19.9288 86.1418 19.9288H79.3197C79.161 19.9288 79.0089 19.8658 78.8967 19.7536C78.7845 19.6415 78.7215 19.4893 78.7215 19.3307C78.7161 18.9697 78.7107 17.4366 78.7054 14.7314C78.7 12.0263 78.6973 10.4932 78.6973 10.1322C78.6973 10.0529 78.713 9.97448 78.7436 9.90138C78.7741 9.82828 78.8189 9.76197 78.8753 9.70632C78.9317 9.65067 78.9986 9.60679 79.0721 9.57721C79.1456 9.54763 79.2243 9.53294 79.3035 9.53401L86.1256 9.50977C86.27 9.50976 86.4086 9.56742 86.5115 9.67027C86.6143 9.77312 86.6731 9.91291 86.6753 10.0594V10.2938C86.6763 10.3423 86.6677 10.3904 86.6499 10.4355C86.6321 10.4806 86.6055 10.5216 86.5716 10.5563C86.5377 10.5909 86.4973 10.6184 86.4526 10.6372C86.4079 10.656 86.36 10.6657 86.3115 10.6656L80.4432 10.6818C80.3532 10.6818 80.2668 10.7176 80.2032 10.7812C80.1395 10.8449 80.1037 10.9313 80.1037 11.0213L80.1199 13.8504C80.1199 13.9361 80.154 14.0184 80.2146 14.079C80.2752 14.1396 80.3575 14.1737 80.4432 14.1737L85.6568 14.1575C85.7243 14.157 85.7906 14.1758 85.8478 14.2116C85.9051 14.2474 85.951 14.2987 85.9801 14.3596C86.034 14.4728 86.0609 14.5913 86.0609 14.7153Z" fill="black" />
    <path d="M92.3496 14.2461C92.3658 14.2461 92.382 14.2461 92.3981 14.2461C92.4136 14.2425 92.4286 14.2389 92.4423 14.2354C92.456 14.2318 92.4681 14.2284 92.4778 14.2254C92.4876 14.2224 92.4949 14.2199 92.4992 14.2178C92.5036 14.2158 92.5049 14.2144 92.5032 14.2137C93.2738 13.0821 94.1629 11.6891 95.1706 10.0348C95.2717 9.86932 95.4132 9.7326 95.5817 9.63776C95.7501 9.54292 95.9398 9.49315 96.1325 9.49323H96.4801C96.5351 9.49419 96.5889 9.50995 96.6358 9.53885C96.6827 9.56774 96.721 9.60871 96.7466 9.65747C96.7722 9.70623 96.7842 9.76098 96.7814 9.81598C96.7786 9.87099 96.7611 9.92423 96.7306 9.97013L93.2953 15.1837C93.1423 15.416 93.0608 15.6858 93.0609 15.9597V19.3707C93.0614 19.4965 93.0182 19.6185 92.9385 19.7159C92.8589 19.8132 92.7478 19.8798 92.6244 19.9042C92.5328 19.9204 92.4385 19.9285 92.3415 19.9285C92.2445 19.9285 92.1529 19.9204 92.0667 19.9042C91.9433 19.8798 91.8323 19.8132 91.7526 19.7159C91.673 19.6185 91.6297 19.4965 91.6302 19.3707L91.6383 15.9597C91.6384 15.6858 91.5569 15.4161 91.4039 15.1837L87.9848 9.95396C87.9539 9.90749 87.9364 9.85351 87.9339 9.79781C87.9314 9.74211 87.9442 9.68678 87.9707 9.63777C87.9973 9.58875 88.0368 9.5479 88.0848 9.51959C88.1328 9.49128 88.1877 9.47658 88.2434 9.47706L88.591 9.48515C88.7823 9.48645 88.9704 9.53687 89.1373 9.63165C89.3042 9.72642 89.4445 9.8624 89.5448 10.0267C90.5471 11.681 91.4335 13.0767 92.2041 14.2137C92.1993 14.2138 92.198 14.2147 92.2003 14.2164C92.2027 14.2181 92.2087 14.2206 92.218 14.2237C92.2272 14.2268 92.2394 14.2303 92.2537 14.2342C92.2681 14.2381 92.2842 14.2421 92.3011 14.2461C92.3173 14.2461 92.3335 14.2461 92.3496 14.2461Z" fill="black" />
    <path d="M99.5183 14.8296C99.5453 16.1445 99.9467 17.2303 100.723 18.0871C100.904 18.2886 101.128 18.4461 101.377 18.5478C103.307 19.34 104.848 18.9493 106.001 17.3758C106.106 17.2325 106.257 17.1285 106.428 17.0802C106.599 17.0319 106.782 17.042 106.947 17.109L107.003 17.1333C107.071 17.1623 107.133 17.2056 107.183 17.2602C107.232 17.3148 107.27 17.3793 107.292 17.4494C107.314 17.5194 107.321 17.5932 107.312 17.6657C107.302 17.7381 107.277 17.8075 107.238 17.8689C106.472 19.1029 105.43 19.8142 104.11 20.0028C100.383 20.5443 98.1038 18.4428 98.031 14.862C97.9583 11.2812 100.157 9.09064 103.907 9.48671C105.233 9.62143 106.303 10.2923 107.116 11.4994C107.158 11.5595 107.186 11.628 107.197 11.7002C107.209 11.7724 107.205 11.8465 107.185 11.9173C107.165 11.9881 107.13 12.054 107.082 12.1103C107.033 12.1665 106.974 12.2118 106.906 12.243L106.85 12.2673C106.688 12.3407 106.507 12.3582 106.334 12.3173C106.161 12.2763 106.007 12.1791 105.896 12.041C104.683 10.5106 103.129 10.1792 101.232 11.0467C100.986 11.1575 100.768 11.3233 100.593 11.5317C99.8497 12.4155 99.4914 13.5148 99.5183 14.8296Z" fill="black" />
    <path d="M118.844 15.6344C118.824 16.237 118.686 16.8297 118.437 17.3788C118.188 17.9279 117.833 18.4225 117.393 18.8345C116.953 19.2465 116.436 19.5677 115.871 19.7798C115.307 19.992 114.706 20.0909 114.104 20.0709L113.199 20.0408C112.596 20.0208 112.003 19.8823 111.454 19.6333C110.905 19.3842 110.411 19.0294 109.999 18.5892C109.587 18.1489 109.265 17.6319 109.053 17.0675C108.841 16.5031 108.742 15.9025 108.762 15.2999L108.808 13.9104C108.828 13.3078 108.967 12.7151 109.216 12.166C109.465 11.6169 109.82 11.1223 110.26 10.7103C110.7 10.2984 111.217 9.97714 111.782 9.765C112.346 9.55287 112.947 9.45397 113.549 9.47396L114.454 9.50403C115.057 9.52401 115.649 9.66249 116.198 9.91156C116.748 10.1606 117.242 10.5154 117.654 10.9556C118.066 11.3959 118.387 11.9129 118.599 12.4773C118.812 13.0417 118.911 13.6423 118.891 14.2449L118.844 15.6344ZM114.008 18.994C114.501 18.9682 114.983 18.8332 115.427 18.5968C115.871 18.3604 116.269 18.0271 116.597 17.6161C116.925 17.205 117.177 16.7243 117.339 16.2012C117.5 15.6782 117.569 15.123 117.539 14.5676C117.481 13.4458 117.029 12.3907 116.283 11.6344C115.538 10.8781 114.56 10.4825 113.564 10.5346C113.071 10.5605 112.589 10.6954 112.145 10.9319C111.701 11.1683 111.303 11.5015 110.975 11.9126C110.647 12.3236 110.395 12.8044 110.233 13.3274C110.072 13.8505 110.003 14.4056 110.033 14.9611C110.091 16.0828 110.543 17.1379 111.289 17.8943C112.034 18.6506 113.012 19.0462 114.008 18.994Z" fill="black" />
    <path d="M125.797 17.7459C125.824 17.7459 125.851 17.7432 125.878 17.7378C125.888 17.7339 125.901 17.72 125.914 17.6982C125.927 17.6763 125.94 17.6477 125.951 17.6165L128.836 10.067C128.92 9.85118 129.077 9.67093 129.28 9.55747C129.482 9.44401 129.718 9.40449 129.945 9.44577C130.173 9.48704 130.378 9.60651 130.525 9.78345C130.673 9.96039 130.753 10.1837 130.752 10.4145V19.5161C130.752 19.634 130.705 19.7471 130.622 19.8304C130.539 19.9138 130.426 19.9606 130.308 19.9606H129.96C129.905 19.9606 129.85 19.9498 129.799 19.9286C129.748 19.9075 129.702 19.8766 129.663 19.8375C129.624 19.7985 129.593 19.7522 129.572 19.7012C129.551 19.6502 129.54 19.5955 129.54 19.5403V12.0635C129.54 12.0249 129.526 11.987 129.501 11.9568C129.476 11.9266 129.442 11.9061 129.404 11.8991C129.366 11.8922 129.328 11.8993 129.297 11.9192C129.265 11.939 129.242 11.9702 129.233 12.0069C128.51 14.0223 127.576 16.5119 126.428 19.4757C126.309 19.7882 126.096 19.9445 125.789 19.9445C125.482 19.9391 125.269 19.7828 125.151 19.4757C124.019 16.5011 123.098 14.0061 122.386 11.9907C122.376 11.9541 122.353 11.923 122.322 11.9032C122.29 11.8835 122.252 11.8764 122.215 11.8833C122.177 11.8902 122.143 11.9107 122.118 11.9408C122.093 11.971 122.079 12.0088 122.079 12.0473L122.039 19.5241C122.037 19.6342 121.991 19.7391 121.913 19.8161C121.834 19.8932 121.728 19.9364 121.618 19.9364H121.271C121.153 19.9364 121.04 19.8895 120.956 19.8062C120.873 19.7228 120.826 19.6097 120.826 19.4918L120.875 10.3903C120.876 10.1601 120.957 9.938 121.105 9.76243C121.253 9.58686 121.458 9.46878 121.685 9.42854C121.913 9.38831 122.147 9.42846 122.349 9.54205C122.551 9.65565 122.707 9.83557 122.79 10.0508L125.636 17.6165C125.646 17.6481 125.659 17.677 125.672 17.6989C125.686 17.7208 125.698 17.7344 125.708 17.7378C125.735 17.7432 125.765 17.7459 125.797 17.7459Z" fill="black" />
    <path d="M139.507 14.6754C139.518 14.6861 139.733 14.8047 140.153 15.031C140.417 15.1765 140.606 15.3597 140.719 15.5807C141.657 17.4398 141.145 18.8166 139.183 19.7111C138.666 19.9482 136.855 20.0183 133.752 19.9213C133.621 19.9171 133.498 19.8624 133.408 19.7689C133.317 19.6754 133.267 19.5503 133.267 19.4201V10.0195C133.267 9.89657 133.316 9.77853 133.403 9.69084C133.491 9.60315 133.61 9.55282 133.735 9.5507C135.729 9.51837 137.208 9.5534 138.173 9.65578C140.8 9.92252 141.463 12.5334 139.491 14.0853C139.445 14.1203 139.408 14.1656 139.383 14.2176C139.358 14.2697 139.346 14.3268 139.348 14.3845C139.349 14.4421 139.364 14.4985 139.392 14.5491C139.42 14.5997 139.459 14.643 139.507 14.6754ZM134.56 11.0703L134.592 13.7054C134.592 13.7869 134.625 13.865 134.682 13.9226C134.74 13.9802 134.818 14.0126 134.899 14.0126L137.308 13.9802C137.796 13.975 138.262 13.8163 138.605 13.539C138.947 13.2617 139.138 12.8884 139.135 12.501V12.1777C139.133 11.9852 139.084 11.7951 138.99 11.6182C138.896 11.4412 138.758 11.2809 138.585 11.1465C138.413 11.0121 138.208 10.9062 137.983 10.8349C137.759 10.7636 137.518 10.7282 137.276 10.7308L134.867 10.7632C134.786 10.7632 134.707 10.7955 134.65 10.8531C134.592 10.9107 134.56 10.9889 134.56 11.0703ZM134.592 15.3624L134.576 18.5633C134.576 18.6327 134.603 18.6993 134.651 18.7491C134.7 18.7989 134.765 18.828 134.835 18.8301L137.575 18.8462C137.857 18.8487 138.138 18.8069 138.4 18.7232C138.661 18.6396 138.9 18.5158 139.101 18.3589C139.302 18.202 139.462 18.0151 139.572 17.8088C139.682 17.6026 139.739 17.381 139.741 17.1569V16.8335C139.745 16.3816 139.522 15.9464 139.122 15.6236C138.722 15.3008 138.177 15.1167 137.607 15.1119L134.867 15.0957C134.831 15.0946 134.796 15.1007 134.762 15.1136C134.729 15.1265 134.699 15.146 134.673 15.1709C134.648 15.1958 134.627 15.2255 134.613 15.2584C134.599 15.2913 134.592 15.3267 134.592 15.3624Z" fill="black" />
    <path d="M9.91905 23.47C8.31322 24.3861 7.43486 24.8441 7.28397 24.8441C7.14925 24.8441 6.28167 24.378 4.68122 23.4458C3.08617 22.5135 2.25092 21.9827 2.17547 21.8534C2.11081 21.7295 2.08117 20.7433 2.08656 18.895C2.09734 17.0467 2.14045 16.0578 2.21589 15.9285C2.28594 15.81 3.12389 15.2926 4.72972 14.3766C6.33556 13.4605 7.21392 13.0024 7.3648 13.0024C7.49952 13.0024 8.3671 13.4686 9.96755 14.4008C11.5626 15.3331 12.3979 15.8638 12.4733 15.9932C12.538 16.1117 12.5676 17.0952 12.5622 18.9435C12.5514 20.7972 12.5083 21.786 12.4329 21.91C12.3628 22.0339 11.5249 22.5539 9.91905 23.47Z" fill="black" />
    <path d="M39.4128 13.8836C39.7361 14.0615 40.0568 14.2474 40.3747 14.4414C40.4835 14.5084 40.5752 14.5995 40.6426 14.7075C40.7099 14.8155 40.751 14.9375 40.7627 15.0638C40.8058 15.4679 40.83 15.8775 40.8354 16.2924C40.8408 16.7073 40.8247 17.1169 40.7869 17.521C40.7783 17.6472 40.7402 17.7699 40.6757 17.8793C40.6112 17.9887 40.522 18.0819 40.4151 18.1515C40.108 18.3509 39.7927 18.5449 39.4694 18.7335C39.1515 18.9221 38.8308 19.1053 38.5075 19.2831C38.3947 19.3442 38.2695 19.3782 38.1417 19.3824C38.014 19.3866 37.8874 19.3609 37.772 19.3074C37.4001 19.1457 37.0337 18.9625 36.6727 18.7577C36.3116 18.5584 35.964 18.3401 35.6299 18.103C35.5256 18.0318 35.4392 17.9371 35.3775 17.8263C35.3158 17.7155 35.2804 17.5916 35.2743 17.4644C35.2527 17.098 35.242 16.7289 35.242 16.3571C35.2366 15.9852 35.2393 15.6161 35.25 15.2497C35.2531 15.1225 35.2853 14.9979 35.3442 14.8858C35.4031 14.7736 35.4871 14.6768 35.5895 14.603C35.9182 14.3605 36.2604 14.1342 36.6161 13.9241C36.9717 13.7139 37.3355 13.5199 37.7073 13.3421C37.8211 13.2886 37.9459 13.2623 38.0721 13.2651C38.1983 13.2679 38.3224 13.2998 38.4348 13.3582C38.7635 13.5253 39.0895 13.7004 39.4128 13.8836Z" fill="black" />
    <path d="M31.314 37.7764C28.6951 39.2853 27.3318 40.0397 27.224 40.0397C27.1054 40.0397 25.7394 39.2826 23.1259 37.7684C20.5069 36.2541 19.1705 35.4512 19.1167 35.3596C19.0574 35.2572 19.0304 33.6945 19.0358 30.6714C19.0358 27.6537 19.0655 26.0964 19.1247 25.9994C19.184 25.897 20.5204 25.0914 23.1339 23.5826C25.7529 22.0791 27.1162 21.3274 27.224 21.3274C27.3425 21.3274 28.7086 22.0818 31.3221 23.5907C33.941 25.1049 35.2774 25.9105 35.3313 26.0075C35.3906 26.1099 35.4175 27.6699 35.4121 30.6876C35.4121 33.7107 35.3825 35.268 35.3232 35.3596C35.2639 35.462 33.9275 36.2676 31.314 37.7764Z" fill="black" />
    <path d="M51.2227 28.2639C50.0587 26.9814 48.8112 26.7416 47.4802 27.5445C47.31 27.6469 47.1736 27.7965 47.0874 27.9754C47.0012 28.1542 46.969 28.3545 46.9947 28.552C47.0203 28.7496 47.1028 28.9359 47.232 29.0885C47.3612 29.2411 47.5316 29.3533 47.7227 29.4117L51.1499 30.4301C51.2986 30.478 51.4316 30.5583 51.5379 30.6645C52.2223 31.3705 52.4863 32.1842 52.3301 33.1056C52.3046 33.251 52.25 33.3897 52.1694 33.5134C52.0888 33.637 51.984 33.7431 51.8613 33.825C50.3794 34.8058 48.7951 34.9782 47.1084 34.3423C46.2516 34.0244 45.8448 33.5125 45.8879 32.8066C45.8935 32.7065 45.9316 32.611 45.9964 32.5345C46.0612 32.4581 46.1492 32.4048 46.247 32.3829C46.3448 32.3609 46.4471 32.3715 46.5384 32.413C46.6297 32.4544 46.7049 32.5245 46.7528 32.6126C47.3671 33.7442 48.4933 34.1133 50.1315 33.7199C50.7027 33.5798 51.0691 33.305 51.2308 32.8955C51.2937 32.7319 51.3204 32.5567 51.3091 32.3815C51.2978 32.2063 51.2488 32.0353 51.1654 31.8799C51.0819 31.7245 50.966 31.5883 50.8253 31.4804C50.6846 31.3726 50.5225 31.2956 50.3497 31.2546C48.5553 30.8181 46.3243 30.4706 46.0172 28.9429C45.9194 28.473 46.0011 27.9791 46.2478 27.5477C46.4946 27.1162 46.8908 26.7746 47.3671 26.5826C48.4179 26.1461 51.7723 26.0814 51.934 27.9486C51.9408 28.0338 51.921 28.119 51.8773 28.1924C51.8336 28.2658 51.7682 28.3238 51.6901 28.3584C51.612 28.3931 51.5251 28.4025 51.4413 28.3856C51.3576 28.3687 51.2812 28.3261 51.2227 28.2639Z" fill="black" />
    <path d="M61.6798 31.0648C61.6839 31.535 61.5953 32.0014 61.4192 32.4374C61.243 32.8734 60.9827 33.2704 60.6531 33.6058C60.3235 33.9412 59.9311 34.2084 59.4982 34.3922C59.0654 34.5759 58.6006 34.6726 58.1303 34.6767L57.4191 34.6828C56.4695 34.6911 55.5554 34.3218 54.8781 33.6562C54.2007 32.9906 53.8155 32.0831 53.8072 31.1335L53.797 29.9695C53.7929 29.4993 53.8815 29.0329 54.0576 28.5969C54.2338 28.1609 54.4941 27.7638 54.8237 27.4284C55.1533 27.093 55.5457 26.8258 55.9786 26.6421C56.4114 26.4584 56.8762 26.3617 57.3464 26.3576L58.0577 26.3515C59.0073 26.3432 59.9214 26.7125 60.5987 27.3781C61.2761 28.0437 61.6613 28.9512 61.6696 29.9008L61.6798 31.0648ZM57.7326 33.8555C58.1179 33.8561 58.4996 33.7704 58.8559 33.6033C59.2122 33.4361 59.536 33.1908 59.809 32.8813C60.082 32.5718 60.2988 32.2041 60.447 31.7994C60.5951 31.3946 60.6718 30.9606 60.6725 30.5222C60.6741 29.6369 60.3664 28.7872 59.8173 28.1602C59.2681 27.5332 58.5224 27.1802 57.7442 27.1788C57.3589 27.1782 56.9772 27.2638 56.6209 27.431C56.2646 27.5981 55.9407 27.8435 55.6677 28.153C55.3947 28.4625 55.178 28.8302 55.0298 29.2349C54.8817 29.6397 54.805 30.0737 54.8042 30.5121C54.8027 31.3974 55.1104 32.2471 55.6595 32.8741C56.2087 33.5011 56.9544 33.8541 57.7326 33.8555Z" fill="black" />
    <path d="M63.6621 34.3734V26.6379C63.6621 26.6103 63.6675 26.583 63.6781 26.5575C63.6887 26.532 63.7041 26.5088 63.7237 26.4893C63.7432 26.4698 63.7663 26.4543 63.7918 26.4437C63.8173 26.4332 63.8447 26.4277 63.8723 26.4277H68.9484C68.976 26.4277 69.0034 26.4332 69.0289 26.4437C69.0544 26.4543 69.0775 26.4698 69.097 26.4893C69.1166 26.5088 69.132 26.532 69.1426 26.5575C69.1532 26.583 69.1586 26.6103 69.1586 26.6379V27.1229C69.1586 27.1505 69.1532 27.1778 69.1426 27.2033C69.132 27.2288 69.1166 27.252 69.097 27.2715C69.0775 27.291 69.0544 27.3065 69.0289 27.317C69.0034 27.3276 68.976 27.333 68.9484 27.333H64.8746C64.8188 27.333 64.7654 27.3552 64.726 27.3946C64.6865 27.434 64.6644 27.4875 64.6644 27.5432V30.154C64.6644 30.2098 64.6865 30.2632 64.726 30.3026C64.7654 30.342 64.8188 30.3642 64.8746 30.3642H68.9727C69.0284 30.3642 69.0819 30.3863 69.1213 30.4257C69.1607 30.4652 69.1828 30.5186 69.1828 30.5743V31.0432C69.1828 31.0989 69.1607 31.1524 69.1213 31.1918C69.0819 31.2312 69.0284 31.2533 68.9727 31.2533H64.8584C64.8027 31.2533 64.7492 31.2755 64.7098 31.3149C64.6704 31.3543 64.6482 31.4078 64.6482 31.4635V34.3734C64.6482 34.401 64.6428 34.4283 64.6322 34.4538C64.6217 34.4793 64.6062 34.5025 64.5867 34.522C64.5672 34.5415 64.544 34.557 64.5185 34.5676C64.493 34.5781 64.4657 34.5836 64.4381 34.5836H63.8723C63.8165 34.5836 63.7631 34.5614 63.7237 34.522C63.6842 34.4826 63.6621 34.4291 63.6621 34.3734Z" fill="black" />
    <path d="M73.5885 26.4194C75.3721 26.4087 76.3636 26.4302 76.563 26.4841C76.8001 26.5434 76.9321 26.6296 76.9591 26.7428C76.9806 26.8398 76.9753 26.9395 76.9429 27.0418C76.9201 27.1212 76.8714 27.1909 76.8043 27.2405C76.7372 27.2901 76.6554 27.3168 76.5711 27.3167H74.6635C74.5291 27.3166 74.3999 27.3689 74.3033 27.4624C74.2067 27.556 74.1504 27.6834 74.1462 27.8178C74.1139 28.6315 74.1327 30.5229 74.2028 33.4921C74.2189 34.2358 74.0249 34.6103 73.6208 34.6157C73.2166 34.6157 73.0199 34.2412 73.0307 33.4921C73.0738 30.5229 73.0765 28.6342 73.0388 27.8259C73.0346 27.6915 72.9782 27.5641 72.8817 27.4705C72.7851 27.377 72.6559 27.3247 72.5215 27.3247L70.6139 27.3409C70.5296 27.3411 70.4477 27.3144 70.3806 27.2648C70.3135 27.2152 70.2649 27.1455 70.2421 27.0661C70.2043 26.9637 70.1963 26.864 70.2178 26.767C70.2448 26.6539 70.3768 26.5649 70.6139 26.5003C70.8133 26.4518 71.8048 26.4248 73.5885 26.4194Z" fill="black" />
    <path d="M83.0287 26.4114C83.1957 26.4114 83.3466 26.4545 83.4813 26.5407C83.5659 26.5967 83.6289 26.6825 83.6591 26.7832L85.2596 32.7485C85.2663 32.7805 85.2836 32.8093 85.3086 32.8303C85.3337 32.8513 85.3651 32.8632 85.3978 32.8642C85.4305 32.8651 85.4626 32.855 85.4888 32.8355C85.5151 32.816 85.534 32.7882 85.5425 32.7566L87.345 26.7104C87.3598 26.6605 87.3844 26.614 87.4172 26.5736C87.45 26.5332 87.4904 26.4996 87.5362 26.4748C87.582 26.4501 87.6323 26.4346 87.6841 26.4292C87.7358 26.4239 87.7882 26.4288 87.8381 26.4437L88.1129 26.5245C88.205 26.5526 88.2822 26.6159 88.3277 26.7008C88.3731 26.7856 88.3831 26.885 88.3554 26.9772L86.2215 34.1145C86.1718 34.283 86.0681 34.4304 85.9264 34.534C85.7846 34.6377 85.6127 34.6919 85.4372 34.6882C85.2616 34.6845 85.0921 34.6232 84.9549 34.5137C84.8176 34.4042 84.7202 34.2526 84.6776 34.0822C83.7076 30.2886 83.158 28.3917 83.0287 28.3917C82.8993 28.3917 82.3443 30.2886 81.3635 34.0822C81.32 34.2523 81.2218 34.4033 81.084 34.512C80.9461 34.6208 80.7764 34.6812 80.6009 34.6839C80.4253 34.6867 80.2538 34.6317 80.1126 34.5273C79.9714 34.4229 79.8685 34.2751 79.8197 34.1065L77.7019 26.9691C77.6742 26.8769 77.6842 26.7775 77.7296 26.6927C77.7751 26.6078 77.8523 26.5445 77.9444 26.5165L78.2192 26.4356C78.2691 26.4207 78.3215 26.4158 78.3732 26.4211C78.425 26.4265 78.4753 26.442 78.5211 26.4668C78.5669 26.4915 78.6073 26.5251 78.6401 26.5655C78.6729 26.6059 78.6975 26.6525 78.7123 26.7024L80.5067 32.7566C80.5152 32.7882 80.5341 32.816 80.5604 32.8355C80.5866 32.855 80.6187 32.8651 80.6514 32.8642C80.6841 32.8632 80.7155 32.8513 80.7406 32.8303C80.7657 32.8093 80.7829 32.7805 80.7896 32.7485L82.3982 26.7832C82.4284 26.6825 82.4914 26.5967 82.576 26.5407C82.7107 26.4545 82.8616 26.4114 83.0287 26.4114Z" fill="black" />
    <path d="M92.2682 26.4114C92.5969 26.4168 92.834 26.5111 92.9795 26.6943C92.9958 26.7163 93.0094 26.738 93.0199 26.7589L95.9864 34.1792C96.0081 34.2351 96.0138 34.296 96.0028 34.3549C95.9919 34.4139 95.9648 34.4687 95.9246 34.5131C95.8843 34.5576 95.8325 34.5899 95.7749 34.6066C95.7173 34.6233 95.6562 34.6237 95.5984 34.6076L95.2832 34.5106C95.1825 34.4805 95.09 34.4276 95.0129 34.3562C94.9359 34.2847 94.8762 34.1965 94.8386 34.0984L94.2728 32.6919C94.2151 32.55 94.118 32.428 93.9932 32.3404C93.8683 32.2529 93.7212 32.2037 93.5695 32.1989C93.3702 32.1935 92.9256 32.1881 92.2358 32.1827C91.5515 32.1827 91.1096 32.1827 90.9102 32.1827C90.7581 32.1854 90.6099 32.2326 90.4836 32.3187C90.3573 32.4048 90.2584 32.5261 90.1989 32.6677L89.6169 34.066C89.5793 34.1642 89.5196 34.2524 89.4426 34.3238C89.3655 34.3953 89.2731 34.4481 89.1724 34.4783L88.8571 34.5672C88.7993 34.5832 88.7382 34.5829 88.6806 34.5662C88.623 34.5495 88.5712 34.5171 88.5309 34.4727C88.4907 34.4283 88.4636 34.3735 88.4527 34.3145C88.4418 34.2555 88.4474 34.1947 88.4691 34.1388L91.5164 26.7509C91.5269 26.73 91.5404 26.7083 91.5569 26.6862C91.7077 26.503 91.9448 26.4114 92.2682 26.4114ZM92.3086 31.3825C92.7343 31.3717 93.0334 31.3474 93.2058 31.3097C93.2602 31.2997 93.3117 31.2783 93.3571 31.2467C93.4025 31.2152 93.4406 31.1744 93.4689 31.1269C93.4972 31.0795 93.5151 31.0265 93.5213 30.9716C93.5275 30.9167 93.5219 30.8611 93.5049 30.8086C92.8798 28.8686 92.4406 27.9014 92.1873 27.9067C91.9395 27.9175 91.5703 28.9117 91.08 30.8894C91.0657 30.9433 91.0632 30.9996 91.0726 31.0545C91.082 31.1095 91.1032 31.1617 91.1346 31.2078C91.1661 31.2538 91.2071 31.2925 91.2548 31.3212C91.3026 31.35 91.356 31.3681 91.4114 31.3744C91.5838 31.3959 91.8829 31.3986 92.3086 31.3825Z" fill="black" />
    <path d="M104.029 34.4456C104.043 34.4672 104.049 34.4922 104.048 34.5175C104.048 34.5428 104.039 34.5673 104.025 34.5879C104.01 34.6086 103.99 34.6245 103.966 34.6337C103.943 34.6429 103.917 34.6449 103.892 34.6396L102.979 34.4537C102.964 34.4513 102.95 34.4458 102.937 34.4374C102.924 34.429 102.914 34.4181 102.906 34.4052L101.217 31.5681C101.143 31.4425 101.038 31.3384 100.912 31.266C100.786 31.1937 100.643 31.1557 100.497 31.1558H98.8644C98.7422 31.1558 98.625 31.2044 98.5386 31.2908C98.4522 31.3772 98.4037 31.4944 98.4037 31.6166V34.3406C98.4037 34.4135 98.3747 34.4834 98.3232 34.5349C98.2716 34.5864 98.2017 34.6154 98.1288 34.6154H97.8379C97.7221 34.6154 97.6111 34.5685 97.5292 34.4852C97.4474 34.4018 97.4014 34.2887 97.4014 34.1708V27.381C97.4013 27.2445 97.4285 27.1094 97.4813 26.9837C97.5341 26.858 97.6115 26.7442 97.7087 26.6492C97.806 26.5542 97.9212 26.4799 98.0476 26.4306C98.1739 26.3814 98.3087 26.3582 98.4441 26.3626L101.774 26.4677C102.293 26.4841 102.79 26.6788 103.181 27.019C103.573 27.3591 103.835 27.8238 103.924 28.3348C104.129 29.4934 103.641 30.3826 102.461 31.0023C102.42 31.0226 102.384 31.0516 102.354 31.0874C102.325 31.1232 102.303 31.165 102.29 31.2104C102.277 31.2558 102.273 31.3037 102.279 31.3513C102.285 31.3989 102.3 31.4452 102.324 31.4872L104.029 34.4456ZM98.4037 27.6639L98.4198 30.0404C98.4198 30.1283 98.4548 30.2126 98.5169 30.2747C98.5791 30.3369 98.6633 30.3718 98.7512 30.3718L101.111 30.3637C101.585 30.3614 102.039 30.2085 102.372 29.9387C102.705 29.6689 102.892 29.3042 102.89 28.9249V28.7471C102.889 28.5591 102.842 28.3733 102.751 28.2C102.66 28.0268 102.528 27.8697 102.361 27.7376C102.194 27.6054 101.997 27.501 101.78 27.4301C101.563 27.3592 101.33 27.3233 101.095 27.3245L98.7351 27.3325C98.6472 27.3325 98.5629 27.3675 98.5007 27.4296C98.4386 27.4918 98.4037 27.5761 98.4037 27.6639Z" fill="black" />
    <path d="M112.451 33.9207V34.3896C112.451 34.4453 112.429 34.4987 112.39 34.5382C112.35 34.5776 112.297 34.5997 112.241 34.5997H106.3C106.244 34.5997 106.191 34.5776 106.151 34.5382C106.112 34.4987 106.09 34.4453 106.09 34.3896V26.6379C106.09 26.6103 106.095 26.583 106.106 26.5575C106.116 26.532 106.132 26.5088 106.151 26.4893C106.171 26.4698 106.194 26.4543 106.22 26.4437C106.245 26.4332 106.272 26.4277 106.3 26.4277H111.926C111.953 26.4277 111.981 26.4332 112.006 26.4437C112.032 26.4543 112.055 26.4698 112.074 26.4893C112.094 26.5088 112.109 26.532 112.12 26.5575C112.131 26.583 112.136 26.6103 112.136 26.6379V27.1229C112.136 27.1786 112.114 27.2321 112.074 27.2715C112.035 27.3109 111.982 27.333 111.926 27.333H107.424C107.368 27.333 107.314 27.3552 107.275 27.3946C107.236 27.434 107.213 27.4875 107.213 27.5432V29.7499C107.213 29.7775 107.219 29.8048 107.229 29.8303C107.24 29.8558 107.255 29.879 107.275 29.8985C107.294 29.918 107.318 29.9335 107.343 29.944C107.369 29.9546 107.396 29.96 107.424 29.96H111.619C111.674 29.96 111.728 29.9822 111.767 30.0216C111.807 30.061 111.829 30.1145 111.829 30.1702V30.6552C111.829 30.7109 111.807 30.7644 111.767 30.8038C111.728 30.8432 111.674 30.8653 111.619 30.8653H107.399C107.344 30.8653 107.29 30.8875 107.251 30.9269C107.211 30.9663 107.189 31.0198 107.189 31.0755V33.5004C107.189 33.5562 107.211 33.6096 107.251 33.649C107.29 33.6884 107.344 33.7106 107.399 33.7106H112.241C112.297 33.7106 112.35 33.7327 112.39 33.7721C112.429 33.8115 112.451 33.865 112.451 33.9207Z" fill="black" />
    <path d="M11.4369 36.4505C11.7171 36.6122 12.0377 36.7631 12.3988 36.9032C12.5309 36.9554 12.6441 37.0459 12.7234 37.1628C12.8028 37.2796 12.8446 37.4174 12.8433 37.5579V39.9667C12.8431 40.1238 12.8018 40.2777 12.7237 40.4126C12.6456 40.5475 12.5334 40.6586 12.3988 40.7346L10.4669 41.85C10.3528 41.916 10.2246 41.9553 10.0917 41.9651C9.95886 41.9749 9.82468 41.9549 9.69902 41.9066C9.66669 41.8958 9.30834 41.6911 8.62397 41.2923C7.9396 40.8935 7.58395 40.6834 7.55701 40.6618C7.45278 40.5766 7.36892 40.4699 7.31158 40.3496C7.25424 40.2294 7.22486 40.0985 7.2256 39.9667L7.24177 37.7357C7.24059 37.5811 7.28112 37.4286 7.35922 37.2937C7.43733 37.1587 7.5502 37.0463 7.68634 36.9679L9.77985 35.7796C9.90191 35.7086 10.0431 35.6768 10.1846 35.6884C10.3261 35.6999 10.4612 35.7543 10.572 35.8443C10.8684 36.0868 11.1567 36.2889 11.4369 36.4505Z" fill="black" />
</svg>
