<svg width="196" height="28" viewBox="0 0 196 28" fill="none" xmlns="http://www.w3.org/2000/svg">
    <path d="M195.894 27.3353C195.894 27.4054 195.866 27.4727 195.817 27.5224C195.767 27.572 195.7 27.5999 195.63 27.5999H106.651C106.617 27.5999 106.582 27.593 106.550 27.5797C106.518 27.5664 106.489 27.5469 106.464 27.5224C106.440 27.4978 106.420 27.4686 106.407 27.4365C106.394 27.4044 106.387 27.37 106.387 27.3353V0.264595C106.387 0.19442 106.415 0.127119 106.464 0.0774981C106.514 0.0278769 106.581 0 106.651 0H195.63C195.7 0 195.767 0.0278769 195.817 0.0774981C195.866 0.127119 195.894 0.19442 195.894 0.264595V27.3353ZM110.289 19.6285C110.234 19.7147 110.212 19.8176 110.226 19.9187C110.240 20.0198 110.290 20.1125 110.367 20.18C112.757 22.2819 115.380 23.0409 118.238 22.457C120.302 22.0322 121.968 20.2844 122.043 17.9925C122.154 14.6235 119.184 13.7217 116.195 13.0099C114.407 12.5813 112.040 11.918 111.865 9.72666C111.708 7.74779 113.05 6.29065 114.91 5.99252C117.096 5.63724 119.043 6.23351 120.749 7.78133C120.761 7.79187 120.774 7.79976 120.789 7.80441C120.804 7.80906 120.819 7.81036 120.835 7.80822C120.850 7.80608 120.865 7.80055 120.878 7.79203C120.891 7.78351 120.902 7.77222 120.91 7.75897L121.446 6.92792C121.458 6.91049 121.462 6.88941 121.460 6.86831C121.457 6.84722 121.447 6.82744 121.431 6.81239C119.737 5.3391 117.774 4.67824 115.543 4.82979C112.018 5.07202 109.461 8.23598 111.295 11.6273C112.484 13.826 116.780 14.2993 118.036 14.7391C120.131 15.4769 121.357 16.5465 120.761 18.9428C120.332 20.6682 118.484 21.5291 116.739 21.5664C114.568 21.6086 112.676 20.8285 111.064 19.226C111.026 19.1884 110.980 19.1597 110.929 19.142C110.879 19.1243 110.825 19.1181 110.772 19.1238C110.719 19.1295 110.669 19.147 110.623 19.175C110.578 19.203 110.540 19.2408 110.512 19.2856L110.289 19.6285ZM133.431 17.3813C133.439 17.3813 133.447 17.38 133.457 17.3776C133.469 17.3752 133.479 17.3712 133.487 17.366C133.496 17.3608 133.502 17.3546 133.506 17.3477L139.841 7.52791C139.856 7.50595 139.878 7.48931 139.903 7.48034C139.928 7.47138 139.955 7.47055 139.981 7.47798C140.007 7.48541 140.029 7.50072 140.046 7.52172C140.062 7.54273 140.071 7.56837 140.072 7.59499V21.9502C140.072 22.0728 140.121 22.1903 140.207 22.277C140.292 22.3636 140.409 22.4123 140.531 22.4123H140.736C140.855 22.4123 140.970 22.3648 141.054 22.2802C141.139 22.1957 141.187 22.081 141.187 21.9614V5.47823C141.186 5.3901 141.159 5.30421 141.107 5.23268C141.056 5.16114 140.983 5.10756 140.9 5.07948C140.385 4.90805 140.08 5.10184 139.793 5.53786C139.708 5.66705 137.626 8.94281 133.547 15.3651C133.530 15.3913 133.505 15.4109 133.476 15.421C133.461 15.426 133.446 15.4285 133.431 15.4285C133.414 15.4285 133.398 15.426 133.383 15.421C133.354 15.4109 133.329 15.3913 133.312 15.3651C129.230 8.94281 127.147 5.66705 127.062 5.53786C126.775 5.10184 126.470 4.90805 125.956 5.07948C125.871 5.10776 125.798 5.1619 125.747 5.23419C125.695 5.30647 125.668 5.39319 125.669 5.48196L125.676 21.9651C125.677 22.0841 125.725 22.1978 125.809 22.2816C125.894 22.3653 126.008 22.4123 126.127 22.4123H126.332C126.454 22.4123 126.570 22.3636 126.656 22.277C126.742 22.1903 126.790 22.0728 126.790 21.9502L126.787 7.59499C126.788 7.56837 126.797 7.54273 126.813 7.52172C126.830 7.50072 126.852 7.48541 126.878 7.47798C126.904 7.47055 126.931 7.47138 126.956 7.48034C126.981 7.48931 127.003 7.50595 127.018 7.52791L133.353 17.3477C133.357 17.3546 133.363 17.3608 133.371 17.366C133.380 17.3712 133.390 17.3752 133.401 17.3776C133.411 17.38 133.421 17.3813 133.431 17.3813ZM152.523 17.5862C155.298 17.5862 156.713 17.585 156.768 17.5825C156.865 17.5772 156.961 17.602 157.043 17.6534C157.125 17.7048 157.189 17.7803 157.226 17.8695L158.967 22.0844C159.004 22.1759 159.068 22.2542 159.151 22.3093C159.233 22.3644 159.330 22.3937 159.429 22.3937H159.857C159.899 22.394 159.941 22.3839 159.978 22.3641C160.016 22.3443 160.047 22.3155 160.071 22.2803C160.094 22.2452 160.108 22.2047 160.112 22.1627C160.116 22.1207 160.109 22.0784 160.092 22.0396C159.824 21.4111 157.557 15.9564 153.291 5.67575C153.104 5.22606 152.852 5.00122 152.534 5.00122C152.216 5.00122 151.964 5.22606 151.778 5.67575C147.495 15.949 145.219 21.3999 144.951 22.0285C144.934 22.0672 144.927 22.1095 144.931 22.1515C144.934 22.1935 144.949 22.234 144.972 22.2691C144.995 22.3043 145.027 22.3331 145.064 22.3529C145.101 22.3727 145.143 22.3829 145.185 22.3825H145.614C145.713 22.3826 145.810 22.3532 145.892 22.2981C145.974 22.243 146.038 22.1647 146.076 22.0732L147.820 17.862C147.857 17.7722 147.922 17.6963 148.005 17.6448C148.087 17.5934 148.184 17.569 148.282 17.5751C148.334 17.58 149.748 17.5838 152.523 17.5862ZM176.907 22.4496C176.928 22.4498 176.949 22.444 176.967 22.4329C176.985 22.4218 177 22.4057 177.009 22.3865C177.019 22.3673 177.023 22.3456 177.021 22.3239C177.020 22.3021 177.012 22.2812 177 22.2632L171.906 15.1043C171.898 15.0934 171.893 15.0806 171.891 15.0673C171.890 15.054 171.892 15.0405 171.897 15.0281C171.902 15.0158 171.911 15.005 171.921 14.9968C171.932 14.9886 171.945 14.9833 171.958 14.9813C178.509 13.9751 177.973 5.56395 171.578 5.16519C170.557 5.10059 168.070 5.0683 164.117 5.0683C164.057 5.0683 163.999 5.09225 163.956 5.13488C163.913 5.17751 163.890 5.23533 163.890 5.29563V22.1216C163.890 22.2056 163.923 22.2862 163.982 22.3456C164.042 22.405 164.122 22.4384 164.206 22.4384H164.81C164.879 22.4384 164.946 22.4109 164.994 22.362C165.043 22.3131 165.071 22.2467 165.071 22.1775V15.421C165.071 15.3696 165.091 15.3204 165.127 15.284C165.162 15.2477 165.211 15.2273 165.261 15.2273H170.352C170.422 15.2273 170.492 15.2442 170.555 15.2766C170.617 15.309 170.672 15.3559 170.713 15.4136L175.480 22.1104C175.554 22.2152 175.653 22.3006 175.767 22.3596C175.881 22.4186 176.007 22.4495 176.135 22.4496H176.907ZM186.198 22.4645C186.56 22.4645 186.742 22.3353 186.742 22.0769C186.774 18.3701 186.793 13.1875 186.797 6.52916C186.797 6.4616 186.824 6.39676 186.871 6.34864C186.919 6.30052 186.983 6.273 187.051 6.27202L191.709 6.26456C191.854 6.26472 191.993 6.20903 192.098 6.10907C192.203 6.00912 192.265 5.8726 192.272 5.72792V5.70929C192.275 5.63958 192.264 5.56998 192.239 5.50473C192.214 5.43948 192.177 5.37994 192.128 5.32974C192.080 5.27954 192.022 5.23972 191.957 5.21271C191.893 5.18571 191.824 5.17207 191.754 5.17264C189.943 5.18258 188.097 5.17264 186.216 5.14283C184.333 5.16768 182.486 5.17389 180.675 5.16146C180.605 5.16089 180.536 5.17453 180.471 5.20153C180.407 5.22854 180.349 5.26836 180.3 5.31856C180.252 5.36876 180.214 5.4283 180.189 5.49355C180.165 5.5588 180.154 5.6284 180.157 5.69811V5.71674C180.163 5.86142 180.225 5.99794 180.330 6.09789C180.435 6.19785 180.574 6.25354 180.719 6.25338L185.378 6.27202C185.445 6.27396 185.508 6.3019 185.555 6.34992C185.601 6.39793 185.627 6.46223 185.627 6.52916C185.620 13.1875 185.627 18.3701 185.650 22.0769C185.652 22.3353 185.835 22.4645 186.198 22.4645Z" fill="black" />
    <path d="M59.006 22.7745C57.8685 22.7447 56.7483 22.4812 55.7094 21.9989C54.6704 21.5166 53.733 20.8251 52.9507 19.9637C52.1684 19.1024 51.5565 18.0881 51.15 16.9788C50.7435 15.8696 50.5502 14.687 50.5814 13.4987C50.6442 11.0987 51.617 8.82095 53.2858 7.16646C54.9546 5.51197 57.1827 4.61628 59.4799 4.67643C60.6173 4.70621 61.7375 4.96977 62.7765 5.45204C63.8155 5.93432 64.7528 6.62587 65.5351 7.48721C66.3174 8.34855 66.9293 9.36281 67.3359 10.4721C67.7424 11.5814 67.9356 12.7639 67.9045 13.9523C67.8417 16.3522 66.8688 18.63 65.2001 20.2845C63.5313 21.939 61.3032 22.8346 59.006 22.7745ZM58.9931 19.6867C59.7446 19.7182 60.4953 19.5952 61.2022 19.3247C61.9091 19.0542 62.5584 18.6416 63.113 18.1103C63.6676 17.579 64.1167 16.9395 64.4346 16.2283C64.7525 15.5171 64.933 14.7482 64.9658 13.9653C64.9986 13.1825 64.8831 12.4011 64.6258 11.6658C64.3685 10.9305 63.9745 10.2557 63.4663 9.67985C62.9581 9.10403 62.3456 8.63849 61.6638 8.30981C60.982 7.98113 60.2443 7.79575 59.4928 7.76425C58.7412 7.73276 57.9906 7.85576 57.2837 8.12624C56.5768 8.39672 55.9275 8.80938 55.3729 9.34066C54.8183 9.87193 54.3692 10.5114 54.0513 11.2226C53.7334 11.9338 53.5529 12.7028 53.52 13.4856C53.4872 14.2685 53.6028 15.0498 53.8601 15.7851C54.1174 16.5204 54.5114 17.1953 55.0196 17.7711C55.5278 18.3469 56.1403 18.8124 56.8221 19.1411C57.5038 19.4698 58.2416 19.6552 58.9931 19.6867Z" fill="black" />
    <path d="M0 22.0994V21.9131L0.0633537 5.22499C0.0633647 5.17522 0.0832782 5.12744 0.118816 5.0919C0.154354 5.05636 0.202681 5.03591 0.253415 5.03493C4.55153 4.95046 7.2745 4.97033 8.42232 5.09456C11.7391 5.45232 13.595 7.63989 13.4757 10.9715C13.3937 13.2871 12.1515 14.9082 9.74902 15.8349C9.72995 15.8426 9.71282 15.8545 9.69898 15.8696C9.68513 15.8847 9.67493 15.9027 9.66917 15.9222C9.6634 15.9416 9.66223 15.962 9.66574 15.9818C9.66924 16.0015 9.67734 16.0201 9.68939 16.0361L14.1428 22.2932C14.1518 22.3055 14.1572 22.3201 14.1584 22.3352C14.1596 22.3504 14.1565 22.3656 14.1496 22.3792C14.1426 22.3927 14.132 22.4041 14.119 22.4119C14.1059 22.4198 14.0909 22.4238 14.0757 22.4237H10.6397C10.6065 22.4237 10.5739 22.4156 10.5446 22.4C10.5154 22.3844 10.4904 22.3618 10.472 22.3342L6.66332 16.7218C6.5955 16.6229 6.50474 16.542 6.39889 16.4862C6.29304 16.4303 6.1753 16.4012 6.05587 16.4013H3.15651C3.09622 16.4013 3.03839 16.4253 2.99576 16.4679C2.95313 16.5105 2.92918 16.5684 2.92918 16.6287V22.1963C2.92918 22.2566 2.90483 22.3144 2.8615 22.3571C2.81817 22.3997 2.7594 22.4237 2.69812 22.4237H0.387576C0.323154 22.4235 0.260057 22.4061 0.204954 22.3733C0.149851 22.3405 0.10479 22.2935 0.0745338 22.2373L0 22.0994ZM2.90682 7.99765L2.94408 13.4759C2.94408 13.5134 2.959 13.5495 2.98556 13.576C3.01212 13.6026 3.04814 13.6175 3.0857 13.6175L7.49437 13.5877C7.88949 13.585 8.28026 13.5111 8.64435 13.3701C9.00843 13.2291 9.33869 13.0238 9.61626 12.7659C9.89382 12.5081 10.1132 12.2028 10.262 11.8674C10.4108 11.532 10.4859 11.1731 10.4832 10.8113V10.5579C10.4777 9.8278 10.1559 9.12994 9.58843 8.6177C9.02099 8.10546 8.25437 7.82078 7.45711 7.82622L3.04843 7.85603C3.01087 7.85603 2.97485 7.87095 2.9483 7.89751C2.92174 7.92407 2.90682 7.96009 2.90682 7.99765Z" fill="black" />
    <path d="M28.1304 13.7002C28.1304 14.2318 28.1229 14.643 28.108 14.9337C28.1071 14.9696 28.0921 15.0038 28.0663 15.0288C28.0406 15.0539 28.0061 15.0679 27.9701 15.0679H20.0658C20.0184 15.0679 19.9729 15.0867 19.9393 15.1203C19.9058 15.1538 19.8869 15.1993 19.8869 15.2468V19.4169C19.8869 19.4624 19.905 19.506 19.9372 19.5381C19.9693 19.5703 20.0129 19.5883 20.0584 19.5883H28.9204C28.9916 19.5883 29.0599 19.6166 29.1102 19.6669C29.1605 19.7173 29.1888 19.7855 29.1888 19.8567V22.1411C29.1888 22.2113 29.1609 22.2786 29.1113 22.3282C29.0616 22.3778 28.9943 22.4057 28.9242 22.4057L17.2 22.402C17.1531 22.4012 17.1083 22.3831 17.0744 22.3513C17.0406 22.3196 17.0202 22.2764 17.0174 22.2306C17.0149 22.2181 17.0137 19.3747 17.0137 13.7002C17.0137 8.02815 17.0137 5.18593 17.0137 5.17351C17.0165 5.12764 17.0369 5.08451 17.0707 5.05273C17.1045 5.02096 17.1494 5.00287 17.1963 5.00208L28.9204 4.99463C28.9906 4.99463 29.0579 5.02251 29.1075 5.07213C29.1572 5.12175 29.185 5.18905 29.185 5.25922V7.54368C29.185 7.61421 29.1573 7.6819 29.1078 7.73211C29.0583 7.78233 28.991 7.81103 28.9204 7.81201L20.0584 7.81573C20.0129 7.81573 19.9693 7.83379 19.9372 7.86594C19.905 7.89809 19.8869 7.9417 19.8869 7.98716V12.1573C19.8869 12.2048 19.905 12.2503 19.9393 12.2838C19.9729 12.3174 20.0184 12.3362 20.0658 12.3362L27.9701 12.3325C28.0061 12.3325 28.0406 12.3465 28.0663 12.3715C28.0921 12.3966 28.1071 12.4307 28.108 12.4666C28.1229 12.7573 28.1304 13.1685 28.1304 13.7002Z" fill="black" />
    <path d="M35.4522 22.4204H32.8472C32.8126 22.4204 32.7795 22.4067 32.755 22.3822C32.7305 22.3578 32.7168 22.3246 32.7168 22.29V5.13605C32.7168 5.10146 32.7305 5.06828 32.755 5.04382C32.7795 5.01936 32.8126 5.00562 32.8472 5.00562H35.4596C35.4802 5.00604 35.5004 5.01133 35.5185 5.02105C35.5367 5.03076 35.5522 5.04463 35.564 5.06152L43.9379 16.8229C43.9537 16.8465 43.9768 16.8642 44.0037 16.8735C44.0306 16.8827 44.0597 16.8829 44.0867 16.874C44.1137 16.8652 44.1371 16.8477 44.1532 16.8244C44.1694 16.8011 44.1775 16.7731 44.1764 16.7447V5.13978C44.1764 5.10518 44.1901 5.07201 44.2146 5.04755C44.239 5.02308 44.2722 5.00934 44.3068 5.00934H46.9751C47.0097 5.00934 47.0429 5.02308 47.0673 5.04755C47.0918 5.07201 47.1055 5.10518 47.1055 5.13978V22.2863C47.1055 22.3209 47.0918 22.354 47.0673 22.3785C47.0429 22.403 47.0097 22.4167 46.9751 22.4167H44.3962C44.3757 22.4163 44.3555 22.411 44.3374 22.4013C44.3192 22.3916 44.3036 22.3777 44.2919 22.3608L35.8211 10.4615C35.8053 10.4379 35.7821 10.4202 35.7553 10.411C35.7284 10.4018 35.6993 10.4016 35.6723 10.4104C35.6453 10.4193 35.6219 10.4367 35.6057 10.46C35.5896 10.4834 35.5814 10.5114 35.5826 10.5397V22.29C35.5826 22.3246 35.5689 22.3578 35.5444 22.3822C35.52 22.4067 35.4868 22.4204 35.4522 22.4204Z" fill="black" />
    <path d="M79.3677 18.1533L74.4969 10.1261C74.4828 10.1035 74.4619 10.0861 74.4371 10.0765C74.4123 10.0669 74.3851 10.0655 74.3595 10.0726C74.3339 10.0798 74.3113 10.095 74.2951 10.1161C74.2789 10.1371 74.2699 10.1628 74.2696 10.1894V22.2937C74.2696 22.3263 74.2566 22.3576 74.2336 22.3807C74.2105 22.4037 74.1792 22.4167 74.1466 22.4167H71.5156C71.4829 22.4167 71.4517 22.4037 71.4286 22.3807C71.4055 22.3576 71.3926 22.3263 71.3926 22.2937V5.13229C71.3926 5.09967 71.4055 5.06839 71.4286 5.04533C71.4517 5.02226 71.4829 5.00931 71.5156 5.00931H74.4522C74.4739 5.00884 74.4953 5.01411 74.5142 5.02458C74.5332 5.03505 74.5491 5.05035 74.5603 5.06893L79.364 12.9844C79.3748 13.003 79.3903 13.0184 79.4089 13.0291C79.4276 13.0398 79.4487 13.0454 79.4702 13.0454C79.4917 13.0454 79.5128 13.0398 79.5314 13.0291C79.55 13.0184 79.5656 13.003 79.5764 12.9844L84.1416 5.07266C84.1523 5.05338 84.1679 5.03734 84.1869 5.02619C84.206 5.01505 84.2276 5.00921 84.2497 5.00931H87.026C87.0587 5.00931 87.0899 5.02226 87.113 5.04533C87.1361 5.06839 87.149 5.09967 87.149 5.13229V22.2974C87.149 22.33 87.1361 22.3613 87.113 22.3844C87.0899 22.4074 87.0587 22.4204 87.026 22.4204H84.5292C84.4965 22.4204 84.4653 22.4074 84.4422 22.3844C84.4191 22.3613 84.4062 22.33 84.4062 22.2974V10.2528C84.4064 10.2253 84.3974 10.1986 84.3807 10.1769C84.364 10.1551 84.3405 10.1396 84.3139 10.1327C84.2874 10.1259 84.2593 10.1281 84.2341 10.139C84.209 10.15 84.1882 10.169 84.1751 10.1931L79.5801 18.1533C79.5693 18.1719 79.5538 18.1873 79.5351 18.198C79.5165 18.2087 79.4954 18.2143 79.4739 18.2143C79.4524 18.2143 79.4313 18.2087 79.4127 18.198C79.394 18.1873 79.3785 18.1719 79.3677 18.1533Z" fill="black" />
    <path d="M90.6889 13.7079C90.6815 8.0309 90.6777 5.18743 90.6777 5.1775C90.6796 5.13096 90.6996 5.08691 90.7335 5.05435C90.7675 5.0218 90.8128 5.00319 90.8603 5.00234L102.596 4.97998C102.666 4.97998 102.733 5.00786 102.783 5.05748C102.832 5.1071 102.860 5.1744 102.860 5.24458L102.864 7.53276C102.864 7.60393 102.836 7.67217 102.785 7.72249C102.735 7.77281 102.667 7.80108 102.596 7.80108L93.7262 7.81226C93.7037 7.81226 93.6814 7.8167 93.6606 7.82531C93.6398 7.83393 93.6209 7.84656 93.6049 7.86247C93.589 7.87839 93.5764 7.89729 93.5678 7.91809C93.5592 7.93889 93.5547 7.96118 93.5547 7.98369L93.5622 12.1576C93.5622 12.205 93.581 12.2505 93.6146 12.2841C93.6481 12.3176 93.6936 12.3365 93.7411 12.3365L101.649 12.3253C101.667 12.3248 101.685 12.3279 101.702 12.3343C101.719 12.3408 101.735 12.3506 101.748 12.363C101.761 12.3755 101.771 12.3904 101.779 12.407C101.786 12.4235 101.790 12.4413 101.791 12.4594C101.803 12.7526 101.811 13.1638 101.813 13.693C101.813 14.2247 101.807 14.6371 101.794 14.9302C101.794 14.9483 101.790 14.9662 101.783 14.9827C101.775 14.9993 101.765 15.0142 101.751 15.0267C101.738 15.0391 101.723 15.0489 101.706 15.0553C101.689 15.0618 101.671 15.0649 101.653 15.0644L93.7448 15.0719C93.7213 15.0719 93.698 15.0765 93.6763 15.0855C93.6546 15.0945 93.6349 15.1076 93.6183 15.1242C93.6017 15.1409 93.5885 15.1606 93.5795 15.1823C93.5705 15.204 93.5659 15.2272 93.5659 15.2507L93.5696 19.4246C93.5696 19.4701 93.5877 19.5137 93.6199 19.5458C93.652 19.578 93.6956 19.5961 93.7411 19.5961L102.611 19.5849C102.646 19.5849 102.681 19.5918 102.713 19.6053C102.746 19.6188 102.775 19.6385 102.800 19.6635C102.825 19.6884 102.845 19.718 102.858 19.7505C102.872 19.7831 102.879 19.818 102.879 19.8532L102.883 22.1414C102.883 22.2116 102.855 22.2789 102.805 22.3285C102.756 22.3781 102.688 22.406 102.618 22.406L90.8827 22.4134C90.8358 22.4126 90.791 22.3946 90.7571 22.3628C90.7233 22.331 90.7029 22.2879 90.7001 22.242C90.7001 22.2321 90.6964 19.3874 90.6889 13.7079Z" fill="black" />
    <path d="M165.043 6.55904C165.042 6.51909 165.050 6.47944 165.065 6.44238C165.080 6.40533 165.102 6.37161 165.130 6.34318C165.158 6.31476 165.192 6.29219 165.228 6.27678C165.265 6.26138 165.305 6.25345 165.345 6.25346L171.065 6.21619C172.231 6.20808 173.352 6.59764 174.181 7.29924C175.011 8.00085 175.481 8.95708 175.489 9.95778V10.2857C175.496 11.2869 175.039 12.2501 174.219 12.9637C173.399 13.6772 172.284 14.0826 171.118 14.0907L165.397 14.1317C165.318 14.1317 165.241 14.1004 165.185 14.0446C165.128 13.9888 165.096 13.913 165.095 13.8335L165.043 6.55904Z" fill="black" />
    <path d="M148.465 16.2527L152.359 6.8577C152.371 6.82865 152.391 6.80374 152.417 6.7862C152.443 6.76865 152.473 6.75928 152.505 6.75928C152.536 6.75928 152.567 6.76865 152.592 6.7862C152.618 6.80374 152.638 6.82865 152.650 6.8577L156.544 16.2527C156.554 16.2765 156.558 16.3024 156.555 16.328C156.553 16.3537 156.544 16.3783 156.530 16.3997C156.515 16.421 156.496 16.4385 156.473 16.4506C156.450 16.4627 156.425 16.4689 156.399 16.4688H148.61C148.584 16.4689 148.559 16.4627 148.536 16.4506C148.514 16.4385 148.494 16.421 148.480 16.3997C148.465 16.3783 148.457 16.3537 148.454 16.328C148.451 16.3024 148.455 16.2765 148.465 16.2527Z" fill="black" />
</svg>
