<svg width="404" height="40" viewBox="0 0 404 40" fill="none" xmlns="http://www.w3.org/2000/svg">
<path d="M37.6545 16.1865C35.3215 15.9747 34.169 17.0867 34.197 19.5225C34.1982 19.6097 34.2332 19.6928 34.2944 19.754C34.3556 19.8153 34.4381 19.8496 34.5241 19.8496H37.2854C37.3672 19.8496 37.4456 19.8821 37.5034 19.9399C37.5613 19.9977 37.5937 20.0762 37.5937 20.1579V21.2279C37.5937 21.2666 37.5861 21.3048 37.5713 21.3405C37.5565 21.3763 37.5349 21.4087 37.5075 21.436C37.4802 21.4634 37.4477 21.4851 37.412 21.4998C37.3763 21.5146 37.338 21.5223 37.2994 21.5223H34.4119C34.3599 21.5223 34.31 21.5429 34.2732 21.5797C34.2364 21.6165 34.2157 21.6664 34.2157 21.7185V32.8105C34.2157 32.8489 34.2004 32.8857 34.1733 32.9129C34.1461 32.9401 34.1093 32.9553 34.0708 32.9553H32.3842C32.3457 32.9553 32.3089 32.9401 32.2817 32.9129C32.2546 32.8857 32.2393 32.8489 32.2393 32.8105V21.84C32.2393 21.7569 32.2063 21.6773 32.1476 21.6186C32.0889 21.5599 32.0093 21.5269 31.9263 21.5269H30.7162C30.6319 21.5269 30.5511 21.493 30.4915 21.4325C30.4319 21.372 30.3984 21.29 30.3984 21.2045V20.1579C30.3984 20.0749 30.4314 19.9953 30.4901 19.9366C30.5488 19.8779 30.6285 19.8449 30.7115 19.8449H32.0618C32.0909 19.8451 32.1196 19.8391 32.1462 19.8273C32.1728 19.8156 32.1966 19.7983 32.2161 19.7767C32.2355 19.755 32.2501 19.7295 32.259 19.7018C32.2678 19.6741 32.2707 19.6449 32.2673 19.616C31.8141 16.2052 34.2297 14.0326 37.6872 14.4157C37.7181 14.4192 37.7466 14.4335 37.7673 14.4559C37.788 14.4783 37.7994 14.5073 37.7993 14.5372V16.051C37.7994 16.0696 37.7956 16.088 37.7882 16.1051C37.7808 16.1222 37.77 16.1376 37.7564 16.1503C37.7428 16.163 37.7267 16.1728 37.7092 16.179C37.6917 16.1852 37.6731 16.1878 37.6545 16.1865Z" fill="black"/>
<path d="M47.0088 31.38C47.0234 31.378 47.0383 31.3792 47.0525 31.3834C47.0666 31.3877 47.0797 31.3949 47.0907 31.4047C47.1018 31.4144 47.1107 31.4265 47.1167 31.4399C47.1227 31.4534 47.1258 31.4681 47.1256 31.4828V33.0247C47.1258 33.0595 47.113 33.0932 47.0896 33.1191C47.0663 33.1451 47.0342 33.1613 46.9995 33.1648C42.4066 33.6414 41.3413 30.7586 41.4161 26.6984C41.4722 23.5213 41.5002 21.914 41.5002 21.8766C41.5042 21.8336 41.499 21.7903 41.485 21.7495C41.4709 21.7087 41.4483 21.6713 41.4187 21.64C41.3891 21.6086 41.3531 21.5838 41.3132 21.5675C41.2733 21.5511 41.2303 21.5434 41.1872 21.5449L40.0191 21.5823C39.9784 21.5835 39.9379 21.5766 39.9 21.5619C39.8621 21.5472 39.8275 21.525 39.7983 21.4967C39.7691 21.4684 39.7459 21.4345 39.73 21.397C39.7142 21.3595 39.706 21.3192 39.7061 21.2786V20.1899C39.7061 20.0995 39.7425 20.0127 39.8073 19.9487C39.8722 19.8848 39.9601 19.8488 40.0518 19.8488H41.2759C41.3292 19.8488 41.3803 19.8277 41.418 19.79C41.4557 19.7523 41.4768 19.7012 41.4768 19.6479V16.2792C41.4768 16.2098 41.5039 16.1433 41.5521 16.0942C41.6003 16.0451 41.6657 16.0176 41.7338 16.0176H43.2944C43.36 16.0176 43.423 16.0442 43.4695 16.0915C43.5159 16.1388 43.542 16.203 43.542 16.2699V19.5872C43.542 19.6566 43.5691 19.7231 43.6173 19.7722C43.6654 19.8213 43.7308 19.8488 43.799 19.8488H46.6257C46.6889 19.8488 46.7495 19.874 46.7942 19.9186C46.8389 19.9633 46.864 20.0239 46.864 20.0871V21.3486C46.864 21.4044 46.8418 21.4579 46.8024 21.4973C46.763 21.5367 46.7095 21.5589 46.6537 21.5589H43.8504C43.7711 21.5589 43.695 21.5904 43.6389 21.6465C43.5828 21.7026 43.5513 21.7786 43.5513 21.8579C43.5513 22.4684 43.5467 24.4074 43.5373 27.6749C43.528 30.0998 44.4578 31.7258 47.0088 31.38Z" fill="black"/>
<path d="M12.3547 21.0271L11.6539 22.2419C11.6425 22.2612 11.6272 22.278 11.609 22.2911C11.5908 22.3043 11.5702 22.3136 11.5482 22.3184C11.5263 22.3232 11.5037 22.3235 11.4816 22.3192C11.4596 22.3149 11.4387 22.3061 11.4203 22.2933C9.77874 21.0972 8.23844 20.82 6.79938 21.4616C5.82443 21.8946 5.51139 22.6079 5.86026 23.6016C6.29011 24.821 9.57939 25.7368 10.4718 26.1993C12.9154 27.4562 13.7144 30.1287 11.6025 32.0397C9.31774 34.1048 5.4491 33.2638 3.33255 31.4416C3.30343 31.4167 3.28386 31.3823 3.27706 31.3441C3.27026 31.3059 3.27665 31.2661 3.29518 31.2314L4.03807 29.9512C4.05477 29.9214 4.07803 29.8959 4.10614 29.8764C4.13425 29.857 4.1665 29.8441 4.20053 29.8387C4.23457 29.8334 4.26952 29.8356 4.30285 29.8454C4.33618 29.8551 4.36703 29.8721 4.39316 29.8951C5.73878 31.0788 7.18874 31.574 8.74305 31.3809C11.2053 31.0725 11.3922 28.6009 9.10749 27.6664C6.98004 26.7974 5.69517 26.2071 5.25286 25.8956C2.44482 23.9146 3.57551 20.1814 6.7293 19.5273C8.85986 19.0881 10.707 19.4541 12.2706 20.6253C12.3312 20.6714 12.3732 20.7375 12.3887 20.8115C12.4042 20.8855 12.3921 20.9621 12.3547 21.0271Z" fill="black"/>
<path d="M28.9916 26.2496C28.9981 28.0959 28.2605 29.8692 26.9411 31.1794C25.6217 32.4896 23.8285 33.2293 21.9562 33.2358C21.0291 33.2391 20.1104 33.0622 19.2527 32.7153C18.3949 32.3685 17.6149 31.8584 16.957 31.2142C16.2992 30.5701 15.7765 29.8044 15.4188 28.961C15.0611 28.1177 14.8753 27.213 14.8721 26.2988C14.8657 24.4525 15.6033 22.6792 16.9227 21.369C18.2421 20.0588 20.0352 19.3191 21.9076 19.3125C22.8347 19.3093 23.7533 19.4862 24.6111 19.833C25.4688 20.1799 26.2489 20.69 26.9067 21.3341C27.5645 21.9783 28.0872 22.7439 28.445 23.5873C28.8027 24.4307 28.9885 25.3353 28.9916 26.2496ZM21.9724 31.4322C23.2971 31.423 24.5636 30.8727 25.4936 29.9023C26.4235 28.9319 26.9406 27.6211 26.9311 26.258C26.9216 24.895 26.3862 23.5914 25.4428 22.6342C24.4995 21.6769 23.2253 21.1443 21.9007 21.1535C20.576 21.1628 19.3094 21.7131 18.3795 22.6835C17.4496 23.6538 16.9325 24.9647 16.942 26.3277C16.9515 27.6908 17.4869 28.9943 18.4303 29.9516C19.3736 30.9089 20.6478 31.4415 21.9724 31.4322Z" fill="black"/>
<path d="M49.8455 31.5112C49.8052 31.4794 49.7774 31.4347 49.7671 31.385C49.7568 31.3353 49.7647 31.2839 49.7894 31.2402L51.0136 29.1237C51.0308 29.0951 51.0539 29.0705 51.0813 29.0517C51.1087 29.0329 51.1396 29.0203 51.1718 29.015C51.2041 29.0096 51.2368 29.0115 51.2676 29.0206C51.2984 29.0297 51.3265 29.0458 51.35 29.0676C52.4682 30.0861 53.7624 30.5253 55.2326 30.3852C55.9304 30.3166 56.3602 30.041 56.5222 29.5582C56.6047 29.3058 56.5824 29.0285 56.4595 28.7811C56.3367 28.5337 56.1223 28.3342 55.8587 28.2219C53.4525 27.2127 50.4669 26.2175 50.1071 23.7739C49.738 21.2462 51.8639 19.6389 54.2561 19.4147C56.3742 19.2153 58.1123 19.6311 59.4704 20.6622C59.548 20.7213 59.6012 20.807 59.6201 20.9033C59.639 20.9996 59.6223 21.0999 59.5732 21.1855L58.4845 23.0777C58.4676 23.1065 58.4448 23.1313 58.4176 23.1504C58.3903 23.1696 58.3593 23.1828 58.3265 23.189C58.2938 23.1952 58.2601 23.1943 58.2277 23.1864C58.1953 23.1785 58.165 23.1637 58.1388 23.1431C57.0019 22.2647 55.7341 21.9782 54.3355 22.2834C54.1874 22.3164 54.047 22.3777 53.9231 22.4634C53.7992 22.5491 53.6945 22.6574 53.6152 22.7817C53.536 22.9061 53.484 23.0437 53.4624 23.1862C53.4409 23.3287 53.4502 23.4731 53.4899 23.6104C53.574 23.9032 53.7873 24.1274 54.13 24.2832C56.3945 25.3048 57.6186 25.8686 57.8024 25.9745C61.5869 28.1425 59.989 32.5671 56.111 33.1325C53.7749 33.472 51.6864 32.9316 49.8455 31.5112Z" fill="black"/>
<path d="M74.3329 26.9052H65.7499C65.7113 26.9049 65.6731 26.9134 65.6382 26.9301C65.6033 26.9468 65.5725 26.9714 65.5483 27.0019C65.524 27.0324 65.5069 27.0682 65.4981 27.1064C65.4893 27.1447 65.4892 27.1845 65.4976 27.223C66.3526 31.0355 70.5343 31.157 73.1555 29.0919C73.1758 29.0762 73.1993 29.065 73.2242 29.0591C73.2491 29.0532 73.2749 29.0526 73.2998 29.0575C73.3247 29.0624 73.348 29.0726 73.3683 29.0874C73.3885 29.1022 73.4052 29.1213 73.4171 29.1433L74.5852 31.1617C74.6167 31.2159 74.627 31.28 74.6141 31.342C74.6012 31.404 74.566 31.4595 74.5151 31.4981C72.6119 32.9091 70.4533 33.4573 68.0393 33.1427C59.2041 31.9887 60.5403 18.0232 70.1559 19.4623C73.6414 19.9856 75.0571 23.2655 74.6506 26.6249C74.6415 26.7018 74.6042 26.7728 74.5457 26.8244C74.4872 26.876 74.4115 26.9048 74.3329 26.9052ZM65.7966 24.6766L71.4034 24.6298C71.4224 24.6286 71.4402 24.6203 71.4532 24.6064C71.4663 24.5925 71.4735 24.5741 71.4735 24.5551V24.499C71.4707 24.1565 71.3946 23.8179 71.2496 23.5026C71.1046 23.1874 70.8935 22.9016 70.6284 22.6616C70.3633 22.4217 70.0493 22.2323 69.7045 22.1042C69.3597 21.9761 68.9907 21.9119 68.6187 21.9152H68.5253C67.7747 21.9219 67.0573 22.2028 66.5307 22.696C66.0041 23.1893 65.7115 23.8546 65.7172 24.5457V24.6018C65.7172 24.612 65.7193 24.6221 65.7233 24.6315C65.7274 24.6409 65.7333 24.6494 65.7407 24.6564C65.7482 24.6634 65.757 24.6688 65.7666 24.6723C65.7762 24.6757 65.7864 24.6772 65.7966 24.6766Z" fill="black"/>
<path d="M114.42 26.6147C114.411 26.6924 114.374 26.7639 114.315 26.8156C114.256 26.8673 114.181 26.8956 114.103 26.8951L105.538 26.9091C105.5 26.9087 105.461 26.9172 105.427 26.9339C105.392 26.9507 105.361 26.9752 105.337 27.0057C105.312 27.0363 105.295 27.072 105.286 27.1103C105.278 27.1486 105.278 27.1884 105.286 27.2268C106.146 31.0347 110.323 31.1468 112.935 29.0817C112.955 29.066 112.978 29.0548 113.003 29.0489C113.028 29.043 113.054 29.0424 113.079 29.0473C113.104 29.0522 113.127 29.0624 113.147 29.0772C113.168 29.092 113.184 29.1111 113.196 29.1331L114.364 31.1422C114.396 31.1964 114.406 31.2605 114.393 31.3225C114.38 31.3845 114.345 31.44 114.294 31.4786C112.397 32.8927 110.243 33.444 107.832 33.1326C99.0111 31.9972 100.324 18.0551 109.921 19.4755C113.402 19.9894 114.822 23.26 114.42 26.6147ZM105.622 24.6664L111.229 24.6384C111.249 24.6372 111.268 24.6283 111.282 24.6135C111.296 24.5987 111.304 24.5792 111.304 24.5589V24.5029C111.302 24.161 111.227 23.8229 111.083 23.5077C110.939 23.1926 110.729 22.9067 110.465 22.6663C110.201 22.426 109.888 22.2358 109.543 22.1068C109.199 21.9778 108.83 21.9124 108.458 21.9144H108.356C107.605 21.9184 106.886 22.1963 106.358 22.687C105.83 23.1776 105.535 23.8409 105.538 24.5309V24.587C105.538 24.5978 105.54 24.6085 105.545 24.6185C105.549 24.6284 105.555 24.6374 105.563 24.6448C105.571 24.6523 105.58 24.658 105.591 24.6617C105.601 24.6654 105.612 24.667 105.622 24.6664Z" fill="black"/>
<path d="M81.3701 22.5037C81.4853 22.3418 81.7392 21.9477 82.1316 21.3217C82.9228 20.0633 84.2108 19.4372 85.9956 19.4434C86.0316 19.4434 86.066 19.4582 86.0914 19.4845C86.1168 19.5107 86.1311 19.5464 86.1311 19.5836V22.5551C86.1311 22.5952 86.1155 22.6338 86.0876 22.6626C86.0597 22.6913 86.0217 22.7081 85.9816 22.7093C83.3215 22.7529 81.8529 23.9475 81.5756 26.293C81.423 27.5856 81.4028 29.7224 81.5149 32.7033C81.5162 32.736 81.5107 32.7686 81.4988 32.7991C81.4869 32.8297 81.4689 32.8576 81.4458 32.8811C81.4226 32.9047 81.3949 32.9234 81.3643 32.9362C81.3336 32.949 81.3006 32.9556 81.2673 32.9556H78.3471C78.2864 32.9556 78.2282 32.932 78.1852 32.8899C78.1423 32.8479 78.1182 32.7908 78.1182 32.7314V19.8733C78.1182 19.8113 78.1433 19.7519 78.188 19.7081C78.2326 19.6643 78.2933 19.6396 78.3564 19.6396H81.0056C81.0676 19.6396 81.127 19.6643 81.1708 19.7081C81.2146 19.7519 81.2392 19.8113 81.2392 19.8733V22.4617C81.2374 22.4778 81.2412 22.494 81.25 22.5076C81.2588 22.5212 81.272 22.5313 81.2874 22.5363C81.3028 22.5412 81.3195 22.5407 81.3346 22.5348C81.3496 22.5288 81.3622 22.5179 81.3701 22.5037Z" fill="black"/>
<path d="M94.3575 29.3996C94.4883 29.3996 94.6098 29.1286 94.7219 28.5866C94.8247 28.0914 94.8948 27.7877 94.9322 27.6755C95.5863 25.6665 96.4694 23.0266 97.5814 19.756C97.594 19.7193 97.6174 19.6874 97.6483 19.6648C97.6793 19.6422 97.7163 19.63 97.7542 19.6299H101.029C101.039 19.6301 101.048 19.6326 101.056 19.6371C101.065 19.6415 101.072 19.6479 101.077 19.6556C101.083 19.6633 101.086 19.6721 101.088 19.6815C101.089 19.6908 101.088 19.7003 101.086 19.7093L96.3946 32.7356C96.3737 32.7931 96.3377 32.8436 96.2907 32.8815C96.2437 32.9195 96.1875 32.9433 96.1283 32.9505C96.1002 32.9537 95.5115 32.9552 94.3622 32.9552C93.2128 32.9583 92.6256 32.9583 92.6007 32.9552C92.5407 32.9489 92.4835 32.9254 92.4356 32.8874C92.3877 32.8494 92.351 32.7984 92.3297 32.7403L87.5967 19.7327C87.5938 19.7237 87.593 19.7142 87.5944 19.7048C87.5959 19.6955 87.5994 19.6866 87.6049 19.6789C87.6103 19.6712 87.6175 19.6649 87.6258 19.6604C87.6341 19.656 87.6433 19.6535 87.6528 19.6532L90.928 19.6392C90.9659 19.6394 91.0029 19.6516 91.0339 19.6742C91.0649 19.6968 91.0883 19.7287 91.1009 19.7654C92.2223 23.0329 93.1131 25.6696 93.7735 27.6755C93.8139 27.7877 93.8856 28.0929 93.9884 28.5913C94.1036 29.1302 94.2267 29.3996 94.3575 29.3996Z" fill="black"/>
<path d="M239.021 11.9011C239.061 11.9011 239.086 11.8991 239.098 11.8952C239.118 11.8918 239.137 11.8812 239.154 11.8645C239.17 11.8478 239.184 11.8257 239.193 11.8005L240.5 8.31675C240.538 8.21725 240.609 8.1341 240.702 8.08173C240.794 8.02936 240.902 8.01107 241.007 8.03004C241.112 8.04901 241.206 8.10405 241.275 8.18559C241.343 8.26713 241.381 8.37004 241.381 8.47644V12.8711C241.381 12.9291 241.359 12.9848 241.319 13.0258C241.279 13.0669 241.225 13.0899 241.168 13.0899H240.961C240.931 13.0899 240.903 13.0781 240.882 13.057C240.861 13.0359 240.849 13.0074 240.849 12.9776L240.725 9.89598C240.725 9.85638 240.712 9.81779 240.688 9.78599C240.665 9.75419 240.632 9.73089 240.594 9.71957C240.556 9.70825 240.515 9.70952 240.478 9.7232C240.441 9.73687 240.409 9.76221 240.387 9.79543C240.38 9.80726 240.048 10.7891 239.394 12.741C239.339 12.9066 239.214 12.9894 239.021 12.9894C238.828 12.9894 238.704 12.9066 238.648 12.741C238.002 10.7852 237.675 9.80134 237.667 9.78951C237.645 9.7563 237.613 9.73096 237.576 9.71728C237.539 9.70361 237.498 9.70234 237.46 9.71365C237.423 9.72497 237.389 9.74828 237.366 9.78007C237.342 9.81187 237.329 9.85046 237.33 9.89006L237.193 12.9716C237.193 13.0014 237.182 13.03 237.161 13.0511C237.139 13.0722 237.111 13.084 237.081 13.084L236.874 13.0781C236.846 13.0781 236.818 13.0725 236.793 13.0615C236.767 13.0505 236.743 13.0343 236.723 13.014C236.704 12.9937 236.688 12.9696 236.677 12.943C236.667 12.9165 236.661 12.888 236.661 12.8593L236.679 8.46461C236.677 8.35576 236.714 8.24971 236.783 8.16571C236.852 8.0817 236.949 8.02529 237.056 8.00669C237.164 7.9881 237.274 8.00855 237.368 8.06435C237.461 8.12014 237.532 8.20759 237.566 8.31083L238.856 11.8005C238.864 11.8257 238.878 11.8479 238.894 11.8646C238.911 11.8812 238.93 11.8918 238.95 11.8952C238.962 11.8991 238.986 11.9011 239.021 11.9011Z" fill="black"/>
<path d="M235.715 8.1094C235.741 8.10898 235.767 8.11484 235.79 8.12652C235.813 8.1382 235.833 8.15537 235.849 8.17665C235.864 8.19793 235.875 8.22272 235.879 8.24905C235.884 8.27538 235.882 8.3025 235.875 8.32824L235.828 8.48794C235.816 8.52879 235.792 8.56475 235.759 8.59037C235.726 8.61599 235.685 8.62986 235.644 8.62989H234.716C234.621 8.62989 234.531 8.66666 234.465 8.7321C234.398 8.79755 234.361 8.88631 234.361 8.97886V12.8648C234.361 12.8928 234.355 12.9205 234.345 12.9463C234.334 12.9722 234.318 12.9956 234.298 13.0154C234.279 13.0352 234.255 13.0509 234.229 13.0616C234.203 13.0723 234.176 13.0778 234.148 13.0778H233.953C233.89 13.0778 233.83 13.0522 233.785 13.0067C233.741 12.9613 233.716 12.8996 233.716 12.8353V8.99069C233.716 8.89186 233.677 8.79708 233.607 8.7272C233.537 8.65732 233.442 8.61806 233.343 8.61806H232.243C232.185 8.61806 232.13 8.59501 232.089 8.55396C232.047 8.51292 232.024 8.45726 232.024 8.39922V8.23952C232.024 8.20501 232.038 8.17191 232.063 8.14751C232.087 8.12311 232.12 8.1094 232.155 8.1094H235.715Z" fill="black"/>
<path d="M135.668 28.0018L130.782 25.1746C130.692 25.1241 130.618 25.0504 130.566 24.961C130.514 24.8717 130.486 24.7698 130.486 24.6659V19.0588C130.486 18.9417 130.517 18.8267 130.575 18.7251C130.633 18.6234 130.717 18.5387 130.818 18.4791L135.514 15.7702C135.611 15.7141 135.721 15.6846 135.833 15.6846C135.945 15.6846 136.056 15.7141 136.153 15.7702L140.861 18.485C140.965 18.5459 141.052 18.6326 141.112 18.7364C141.172 18.8402 141.204 18.9574 141.204 19.0765V24.2342C141.204 24.3512 141.235 24.4662 141.293 24.5679C141.351 24.6695 141.434 24.7543 141.535 24.8138L142.541 25.3935C142.638 25.4495 142.748 25.479 142.86 25.479C142.972 25.479 143.082 25.4495 143.179 25.3935L149.816 21.5607C149.897 21.514 149.964 21.4467 150.011 21.3657C150.057 21.2847 150.082 21.1929 150.082 21.0994V19.183C150.082 19.0773 150.054 18.9734 150.001 18.882C149.948 18.7906 149.872 18.7148 149.78 18.6625L146.356 16.6811C146.273 16.6341 146.204 16.5661 146.157 16.4841C146.109 16.402 146.084 16.3088 146.083 16.2138V11.8724C146.084 11.7574 146.114 11.6448 146.171 11.5461C146.228 11.4474 146.31 11.3661 146.409 11.3105L150.147 9.1516C150.223 9.10856 150.308 9.08594 150.395 9.08594C150.482 9.08594 150.568 9.10856 150.644 9.1516L154.423 11.3341C154.517 11.3881 154.594 11.4657 154.648 11.5591C154.702 11.6526 154.731 11.7585 154.731 11.8665V16.2079C154.731 16.3047 154.705 16.3999 154.657 16.484C154.608 16.5682 154.537 16.6382 154.453 16.687L151.058 18.6507C150.957 18.7081 150.873 18.7915 150.815 18.8922C150.757 18.993 150.726 19.1076 150.727 19.2244V21.0402C150.727 21.1481 150.755 21.2541 150.809 21.3476C150.863 21.441 150.941 21.5186 151.034 21.5725L157.99 25.5946C158.08 25.645 158.154 25.7187 158.206 25.8081C158.258 25.8975 158.286 25.9994 158.286 26.1032V34.7506C158.286 34.8654 158.256 34.9782 158.199 35.0779C158.142 35.1775 158.059 35.2604 157.96 35.3184L150.626 39.5533C150.552 39.5965 150.469 39.6192 150.383 39.6192C150.298 39.6192 150.215 39.5965 150.141 39.5533L142.765 35.2947C142.673 35.241 142.597 35.1641 142.544 35.0717C142.491 34.9794 142.464 34.8747 142.464 34.7683V26.9195C142.463 26.6518 142.392 26.389 142.258 26.1574C142.124 25.9257 141.931 25.7335 141.7 25.5998C141.468 25.4662 141.205 25.3959 140.937 25.396C140.669 25.3961 140.406 25.4666 140.175 25.6005L136.017 28.0018C135.965 28.0325 135.905 28.0486 135.844 28.0486C135.782 28.0486 135.722 28.0325 135.668 28.0018ZM148.597 10.9083C147.533 11.5195 146.967 11.8803 146.9 11.9907C146.837 12.105 146.801 12.7754 146.793 14.0017C146.789 15.2319 146.821 15.9043 146.888 16.0186C146.951 16.129 147.515 16.4938 148.579 17.1128C149.64 17.7319 150.236 18.0414 150.366 18.0414C150.496 18.0414 151.095 17.7358 152.164 17.1247C153.228 16.5135 153.794 16.1527 153.861 16.0423C153.924 15.9319 153.96 15.2615 153.968 14.0313C153.972 12.801 153.94 12.1287 153.873 12.0143C153.81 11.9039 153.246 11.5392 152.182 10.9201C151.121 10.301 150.525 9.99149 150.395 9.99149C150.265 9.99149 149.666 10.2971 148.597 10.9083ZM133.586 17.8817C132.186 18.6822 131.456 19.1337 131.397 19.2362C131.33 19.3506 131.293 20.2141 131.285 21.8269C131.277 23.4357 131.303 24.2933 131.362 24.3998C131.425 24.5141 132.152 24.9774 133.544 25.7897C134.936 26.602 135.693 27.0082 135.816 27.0082C135.946 27.0121 136.711 26.6139 138.11 25.8134C139.51 25.0129 140.242 24.5614 140.305 24.4589C140.368 24.3446 140.403 23.483 140.411 21.8742C140.419 20.2614 140.394 19.4018 140.334 19.2954C140.271 19.181 139.544 18.7177 138.152 17.9054C136.76 17.0931 136.003 16.687 135.881 16.687C135.75 16.687 134.985 17.0852 133.586 17.8817ZM146.959 24.5358C144.774 25.7976 143.656 26.4719 143.605 26.5587C143.562 26.6375 143.54 27.9368 143.54 30.4565C143.54 32.9761 143.564 34.2793 143.611 34.3661C143.658 34.445 144.772 35.1153 146.953 36.3771C149.137 37.6389 150.279 38.2698 150.378 38.2698C150.468 38.2698 151.606 37.6389 153.79 36.3771C155.975 35.1192 157.091 34.4469 157.138 34.3602C157.185 34.2813 157.209 32.9801 157.209 30.4565C157.209 27.9368 157.183 26.6336 157.132 26.5468C157.089 26.468 155.975 25.7976 153.79 24.5358C151.61 23.2779 150.468 22.649 150.366 22.649C150.275 22.649 149.139 23.2779 146.959 24.5358Z" fill="black"/>
<path d="M150.419 10.7188C150.431 10.7188 150.443 10.7188 150.455 10.7188C150.485 10.7187 150.51 10.7229 150.526 10.7306L153.004 12.0851C153.093 12.134 153.169 12.2054 153.222 12.2924C153.276 12.3795 153.307 12.4792 153.311 12.5819C153.319 12.7712 153.321 13.2522 153.317 14.0251C153.317 14.7979 153.311 15.281 153.3 15.4742C153.293 15.5754 153.26 15.6731 153.205 15.758C153.15 15.8428 153.075 15.9121 152.986 15.9592L150.496 17.2959C150.482 17.3032 150.459 17.3074 150.431 17.3078C150.415 17.3078 150.401 17.3078 150.389 17.3078C150.378 17.3078 150.366 17.3078 150.354 17.3078C150.324 17.3078 150.298 17.3036 150.283 17.2959L147.805 15.9415C147.716 15.8931 147.641 15.8226 147.588 15.7366C147.534 15.6507 147.503 15.5522 147.497 15.4505C147.489 15.2613 147.485 14.7782 147.485 14.0014C147.489 13.2286 147.497 12.7475 147.509 12.5582C147.515 12.456 147.547 12.3571 147.602 12.2711C147.657 12.1851 147.733 12.1149 147.822 12.0673L150.307 10.7306C150.322 10.7228 150.347 10.7186 150.378 10.7188C150.389 10.7188 150.403 10.7188 150.419 10.7188Z" fill="black"/>
<path d="M166.951 18.3075C167.913 18.3075 168.477 18.2976 168.643 18.2779C168.741 18.265 168.83 18.2172 168.896 18.1433C168.961 18.0693 168.997 17.9743 168.998 17.8757V15.22C168.997 15.1598 169.018 15.1015 169.057 15.0558C169.097 15.0101 169.151 14.9802 169.211 14.9716C169.439 14.94 169.599 14.9341 169.69 14.9538C169.76 14.9673 169.825 15.0013 169.876 15.0518C169.928 15.1022 169.964 15.1668 169.98 15.2377C169.98 15.2456 169.98 16.4167 169.98 18.7511C169.98 21.0854 169.978 22.2565 169.974 22.2644C169.958 22.3345 169.923 22.3986 169.873 22.4489C169.823 22.4993 169.759 22.5338 169.69 22.5483C169.599 22.568 169.439 22.5621 169.211 22.5306C169.151 22.522 169.097 22.4921 169.057 22.4464C169.018 22.4007 168.997 22.3423 168.998 22.2822V19.6265C168.997 19.5278 168.961 19.4328 168.896 19.3589C168.83 19.2849 168.741 19.2371 168.643 19.2242C168.477 19.2045 167.913 19.1947 166.951 19.1947C165.989 19.1907 165.425 19.2006 165.26 19.2242C165.162 19.2371 165.072 19.2849 165.007 19.3589C164.942 19.4328 164.905 19.5278 164.905 19.6265V22.2822C164.905 22.3423 164.884 22.4007 164.845 22.4464C164.806 22.4921 164.751 22.522 164.692 22.5306C164.463 22.5621 164.303 22.568 164.213 22.5483C164.143 22.5338 164.08 22.4993 164.029 22.4489C163.979 22.3986 163.944 22.3345 163.929 22.2644C163.925 22.2526 163.923 21.0815 163.923 18.7511C163.927 16.4167 163.929 15.2436 163.929 15.2318C163.945 15.1609 163.98 15.0963 164.032 15.0458C164.083 14.9954 164.148 14.9614 164.219 14.9479C164.309 14.9282 164.469 14.9341 164.698 14.9656C164.757 14.9742 164.812 15.0042 164.851 15.0498C164.89 15.0955 164.911 15.1539 164.911 15.2141L164.905 17.8698C164.904 17.9703 164.94 18.0675 165.007 18.1428C165.074 18.2181 165.166 18.2662 165.265 18.2779C165.427 18.2976 165.989 18.3075 166.951 18.3075Z" fill="black"/>
<path d="M175.102 22.7835C174.098 22.7852 173.134 22.3675 172.423 21.6223C171.712 20.877 171.311 19.8652 171.31 18.8095C171.309 18.2868 171.406 17.769 171.595 17.2857C171.784 16.8024 172.063 16.3631 172.413 15.9928C172.764 15.6226 173.181 15.3286 173.64 15.1278C174.099 14.927 174.591 14.8231 175.088 14.8223C176.092 14.8205 177.056 15.2382 177.767 15.9835C178.478 16.7288 178.879 17.7405 178.88 18.7963C178.881 19.319 178.784 19.8368 178.595 20.3201C178.406 20.8034 178.127 21.2427 177.777 21.6129C177.426 21.9832 177.009 22.2771 176.55 22.478C176.091 22.6788 175.599 22.7826 175.102 22.7835ZM175.107 21.8963C175.837 21.8976 176.537 21.5722 177.054 20.9919C177.571 20.4116 177.862 19.6237 177.863 18.8018C177.864 18.3948 177.793 17.9916 177.656 17.6153C177.518 17.2391 177.316 16.897 177.061 16.6088C176.806 16.3206 176.504 16.0917 176.17 15.9354C175.837 15.7791 175.479 15.6983 175.118 15.6977C174.389 15.6964 173.689 16.0217 173.172 16.602C172.655 17.1824 172.364 17.9702 172.362 18.7922C172.362 19.1992 172.432 19.6023 172.57 19.9786C172.707 20.3549 172.909 20.6969 173.164 20.9851C173.419 21.2734 173.722 21.5022 174.055 21.6585C174.389 21.8149 174.746 21.8957 175.107 21.8963Z" fill="black"/>
<path d="M182.867 19.0344C182.327 18.1788 181.798 17.327 181.282 16.4793C181.267 16.4585 181.246 16.4428 181.222 16.4344C181.197 16.4261 181.171 16.4254 181.147 16.4325C181.122 16.4397 181.1 16.4542 181.084 16.4742C181.068 16.4943 181.059 16.5187 181.057 16.5443V22.2993C181.057 22.3825 181.024 22.4622 180.965 22.521C180.906 22.5798 180.827 22.6128 180.744 22.6128H180.531C180.437 22.6128 180.346 22.5754 180.28 22.5089C180.213 22.4423 180.176 22.3521 180.176 22.2579V15.598C180.177 15.4487 180.225 15.3037 180.315 15.1841C180.404 15.0646 180.53 14.9769 180.673 14.9339C180.816 14.8909 180.968 14.8948 181.109 14.9452C181.25 14.9955 181.37 15.0895 181.453 15.2135C181.607 15.4461 182.307 16.5542 183.553 18.5376C184.089 19.3893 184.616 20.241 185.132 21.0927C185.146 21.1161 185.168 21.1342 185.193 21.1442C185.218 21.1543 185.246 21.1557 185.273 21.1483C185.299 21.1409 185.322 21.1251 185.338 21.1033C185.355 21.0815 185.363 21.0549 185.363 21.0277V15.2726C185.363 15.1895 185.396 15.1098 185.455 15.051C185.514 14.9922 185.593 14.9592 185.676 14.9592H185.889C185.984 14.9592 186.074 14.9966 186.14 15.0631C186.207 15.1297 186.244 15.2199 186.244 15.314V21.974C186.242 22.1228 186.193 22.267 186.103 22.3855C186.013 22.5041 185.887 22.5908 185.745 22.6331C185.602 22.6754 185.45 22.671 185.31 22.6205C185.17 22.57 185.05 22.4762 184.967 22.3526C184.813 22.1199 184.113 21.0139 182.867 19.0344Z" fill="black"/>
<path d="M193.461 18.7681C193.461 18.8627 193.441 18.9514 193.401 19.0342C193.38 19.0788 193.347 19.1164 193.305 19.1426C193.263 19.1687 193.214 19.1825 193.165 19.1821H189.35C189.287 19.1821 189.227 19.207 189.183 19.2514C189.138 19.2958 189.113 19.3559 189.113 19.4187V21.4888C189.113 21.5547 189.139 21.6179 189.186 21.6645C189.233 21.7111 189.296 21.7373 189.362 21.7373H193.656C193.726 21.7373 193.794 21.7653 193.844 21.8152C193.894 21.8651 193.922 21.9328 193.922 22.0034V22.175C193.922 22.2832 193.88 22.387 193.804 22.4635C193.729 22.5401 193.626 22.5831 193.52 22.5831H188.528C188.412 22.5831 188.3 22.537 188.218 22.4549C188.136 22.3728 188.09 22.2615 188.09 22.1454C188.086 21.8812 188.082 20.7594 188.078 18.7799C188.074 16.8004 188.072 15.6786 188.072 15.4144C188.072 15.3564 188.084 15.299 188.106 15.2455C188.129 15.1921 188.161 15.1435 188.203 15.1028C188.244 15.0621 188.293 15.03 188.347 15.0083C188.4 14.9867 188.458 14.9759 188.516 14.9767L193.508 14.959C193.614 14.959 193.715 15.0012 193.79 15.0764C193.866 15.1517 193.909 15.254 193.91 15.3612V15.5327C193.911 15.5682 193.905 15.6034 193.892 15.6364C193.879 15.6694 193.859 15.6994 193.834 15.7248C193.809 15.7501 193.78 15.7702 193.747 15.784C193.715 15.7977 193.679 15.8048 193.644 15.8048L189.35 15.8166C189.284 15.8166 189.221 15.8428 189.174 15.8894C189.128 15.936 189.101 15.9992 189.101 16.065L189.113 18.1352C189.113 18.1979 189.138 18.2581 189.183 18.3025C189.227 18.3469 189.287 18.3718 189.35 18.3718L193.165 18.36C193.214 18.3596 193.263 18.3733 193.305 18.3995C193.347 18.4257 193.38 18.4633 193.401 18.5078C193.441 18.5906 193.461 18.6774 193.461 18.7681Z" fill="black"/>
<path d="M198.062 18.4243C198.074 18.4243 198.086 18.4243 198.098 18.4243C198.109 18.4217 198.12 18.419 198.13 18.4164C198.14 18.4138 198.149 18.4114 198.156 18.4092C198.163 18.407 198.169 18.4051 198.172 18.4036C198.175 18.4021 198.176 18.4011 198.175 18.4006C198.739 17.5725 199.389 16.5532 200.127 15.3427C200.201 15.2216 200.304 15.1216 200.427 15.0522C200.551 14.9828 200.69 14.9464 200.831 14.9464H201.085C201.125 14.9471 201.165 14.9586 201.199 14.9798C201.233 15.0009 201.261 15.0309 201.28 15.0666C201.299 15.1023 201.307 15.1423 201.305 15.1826C201.303 15.2228 201.291 15.2618 201.268 15.2954L198.754 19.1104C198.643 19.2804 198.583 19.4778 198.583 19.6782V22.1742C198.583 22.2662 198.552 22.3555 198.493 22.4268C198.435 22.498 198.354 22.5467 198.264 22.5646C198.197 22.5764 198.128 22.5823 198.057 22.5823C197.986 22.5823 197.919 22.5764 197.855 22.5646C197.765 22.5467 197.684 22.498 197.626 22.4268C197.567 22.3555 197.536 22.2662 197.536 22.1742L197.542 19.6782C197.542 19.4778 197.482 19.2804 197.37 19.1104L194.868 15.2835C194.846 15.2495 194.833 15.21 194.831 15.1693C194.829 15.1285 194.839 15.088 194.858 15.0522C194.878 15.0163 194.907 14.9864 194.942 14.9657C194.977 14.945 195.017 14.9342 195.058 14.9346L195.312 14.9405C195.452 14.9414 195.59 14.9783 195.712 15.0477C195.834 15.117 195.937 15.2165 196.01 15.3368C196.743 16.5473 197.392 17.5686 197.956 18.4006C197.952 18.4006 197.951 18.4013 197.953 18.4026C197.955 18.4038 197.959 18.4056 197.966 18.4079C197.973 18.4101 197.982 18.4128 197.992 18.4156C198.003 18.4184 198.015 18.4214 198.027 18.4243C198.039 18.4243 198.051 18.4243 198.062 18.4243Z" fill="black"/>
<path d="M203.308 18.8515C203.328 19.8137 203.622 20.6082 204.19 21.2352C204.323 21.3826 204.486 21.4979 204.669 21.5723C206.08 22.1519 207.208 21.8661 208.052 20.7147C208.129 20.6098 208.239 20.5337 208.364 20.4984C208.49 20.463 208.623 20.4704 208.744 20.5195L208.785 20.5372C208.835 20.5584 208.88 20.5901 208.917 20.6301C208.953 20.67 208.98 20.7173 208.997 20.7685C209.013 20.8198 209.018 20.8738 209.011 20.9268C209.004 20.9798 208.986 21.0306 208.957 21.0755C208.397 21.9784 207.634 22.4989 206.668 22.637C203.941 23.0332 202.273 21.4954 202.22 18.8752C202.167 16.255 203.776 14.6521 206.52 14.9419C207.49 15.0405 208.273 15.5314 208.868 16.4147C208.899 16.4586 208.919 16.5088 208.927 16.5616C208.936 16.6144 208.933 16.6686 208.918 16.7205C208.904 16.7723 208.878 16.8205 208.843 16.8616C208.807 16.9028 208.764 16.936 208.714 16.9588L208.673 16.9766C208.555 17.0302 208.422 17.0431 208.296 17.0131C208.169 16.9832 208.057 16.912 207.975 16.8109C207.088 15.6911 205.95 15.4486 204.562 16.0834C204.382 16.1645 204.223 16.2858 204.095 16.4383C203.551 17.085 203.289 17.8894 203.308 18.8515Z" fill="black"/>
<path d="M217.45 19.4404C217.435 19.8813 217.334 20.3151 217.152 20.7168C216.969 21.1186 216.71 21.4806 216.388 21.782C216.065 22.0835 215.687 22.3185 215.274 22.4738C214.861 22.629 214.422 22.7014 213.981 22.6867L213.319 22.6647C212.878 22.6501 212.444 22.5488 212.042 22.3665C211.64 22.1843 211.278 21.9247 210.977 21.6025C210.675 21.2804 210.44 20.902 210.285 20.489C210.13 20.0761 210.058 19.6366 210.072 19.1956L210.106 18.1789C210.12 17.7379 210.222 17.3042 210.404 16.9024C210.586 16.5006 210.846 16.1387 211.168 15.8372C211.49 15.5358 211.869 15.3007 212.282 15.1455C212.695 14.9903 213.134 14.9179 213.575 14.9325L214.237 14.9545C214.678 14.9691 215.112 15.0705 215.514 15.2527C215.915 15.435 216.277 15.6946 216.579 16.0167C216.88 16.3389 217.115 16.7172 217.27 17.1302C217.426 17.5432 217.498 17.9827 217.483 18.4236L217.45 19.4404ZM213.91 21.8988C214.271 21.8799 214.624 21.7811 214.949 21.6081C215.274 21.4351 215.565 21.1912 215.805 20.8905C216.045 20.5897 216.229 20.2379 216.348 19.8551C216.466 19.4724 216.516 19.0662 216.495 18.6597C216.452 17.8389 216.121 17.0668 215.576 16.5134C215.03 15.96 214.314 15.6705 213.586 15.7086C213.225 15.7275 212.872 15.8263 212.547 15.9993C212.222 16.1723 211.931 16.4162 211.691 16.717C211.451 17.0177 211.267 17.3695 211.149 17.7523C211.03 18.135 210.98 18.5412 211.002 18.9477C211.045 19.7685 211.375 20.5406 211.921 21.094C212.466 21.6475 213.182 21.9369 213.91 21.8988Z" fill="black"/>
<path d="M222.538 20.985C222.558 20.985 222.577 20.983 222.597 20.9791C222.605 20.9762 222.614 20.9661 222.623 20.9501C222.633 20.9341 222.642 20.9131 222.65 20.8903L224.762 15.366C224.823 15.2081 224.938 15.0762 225.086 14.9932C225.235 14.9101 225.407 14.8812 225.573 14.9114C225.74 14.9416 225.89 15.0291 225.998 15.1585C226.106 15.288 226.164 15.4514 226.164 15.6203V22.2803C226.164 22.3666 226.129 22.4493 226.068 22.5103C226.007 22.5713 225.925 22.6056 225.838 22.6056H225.584C225.544 22.6056 225.504 22.5977 225.466 22.5822C225.429 22.5667 225.395 22.5441 225.367 22.5155C225.338 22.487 225.315 22.4531 225.3 22.4158C225.284 22.3784 225.276 22.3384 225.276 22.298V16.8269C225.277 16.7987 225.266 16.771 225.248 16.7489C225.23 16.7267 225.205 16.7117 225.177 16.7067C225.15 16.7016 225.122 16.7068 225.099 16.7213C225.076 16.7358 225.059 16.7586 225.052 16.7855C224.523 18.2603 223.839 20.082 222.999 22.2507C222.913 22.4794 222.757 22.5938 222.532 22.5938C222.307 22.5898 222.152 22.4755 222.065 22.2507C221.237 20.0741 220.562 18.2484 220.042 16.7737C220.035 16.7469 220.018 16.7241 219.995 16.7097C219.972 16.6952 219.944 16.69 219.916 16.6951C219.889 16.7002 219.864 16.7151 219.846 16.7372C219.827 16.7593 219.817 16.7869 219.817 16.8151L219.788 22.2862C219.786 22.3668 219.753 22.4435 219.695 22.4999C219.638 22.5563 219.561 22.5879 219.48 22.5879H219.226C219.139 22.5879 219.057 22.5536 218.996 22.4926C218.935 22.4316 218.9 22.3488 218.9 22.2626L218.936 15.6026C218.937 15.4341 218.996 15.2716 219.105 15.1431C219.213 15.0147 219.363 14.9283 219.529 14.8988C219.695 14.8694 219.867 14.8988 220.015 14.9819C220.162 15.065 220.276 15.1967 220.338 15.3542L222.42 20.8903C222.428 20.9134 222.437 20.9346 222.447 20.9506C222.456 20.9666 222.465 20.9766 222.473 20.9791C222.493 20.983 222.514 20.985 222.538 20.985Z" fill="black"/>
<path d="M232.569 18.7389C232.577 18.7468 232.735 18.8336 233.042 18.9992C233.235 19.1056 233.374 19.2397 233.456 19.4014C234.142 20.7618 233.768 21.7692 232.333 22.4238C231.954 22.5973 230.629 22.6486 228.358 22.5776C228.263 22.5745 228.172 22.5345 228.106 22.4661C228.04 22.3976 228.003 22.3061 228.003 22.2109V15.332C228.003 15.2421 228.039 15.1557 228.103 15.0915C228.167 15.0274 228.254 14.9905 228.346 14.989C229.805 14.9653 230.887 14.991 231.593 15.0659C233.515 15.2611 234 17.1715 232.557 18.3071C232.524 18.3327 232.497 18.3659 232.479 18.404C232.46 18.4421 232.451 18.4839 232.453 18.5261C232.454 18.5682 232.465 18.6095 232.485 18.6465C232.505 18.6835 232.534 18.7152 232.569 18.7389ZM228.949 16.101L228.973 18.0292C228.973 18.0888 228.997 18.1459 229.039 18.1881C229.081 18.2302 229.138 18.2539 229.198 18.2539L230.96 18.2303C231.317 18.2264 231.659 18.1103 231.909 17.9074C232.16 17.7045 232.299 17.4313 232.297 17.1479V16.9113C232.296 16.7704 232.26 16.6313 232.191 16.5018C232.122 16.3723 232.021 16.2551 231.895 16.1567C231.769 16.0584 231.619 15.9809 231.454 15.9287C231.29 15.8765 231.114 15.8506 230.937 15.8525L229.174 15.8762C229.114 15.8762 229.057 15.8999 229.015 15.942C228.973 15.9842 228.949 16.0413 228.949 16.101ZM228.973 19.2417L228.961 21.5839C228.961 21.6347 228.981 21.6834 229.016 21.7199C229.052 21.7563 229.1 21.7776 229.15 21.7791L231.155 21.7909C231.362 21.7927 231.567 21.7621 231.759 21.7009C231.951 21.6398 232.125 21.5492 232.272 21.4343C232.419 21.3195 232.537 21.1828 232.617 21.0318C232.697 20.8809 232.739 20.7188 232.741 20.5547V20.3182C232.743 19.9874 232.58 19.669 232.287 19.4328C231.995 19.1966 231.596 19.0619 231.179 19.0583L229.174 19.0465C229.148 19.0457 229.122 19.0502 229.098 19.0596C229.073 19.0691 229.051 19.0833 229.032 19.1015C229.013 19.1197 228.999 19.1415 228.988 19.1656C228.978 19.1897 228.973 19.2155 228.973 19.2417Z" fill="black"/>
<path d="M137.745 25.1742C136.569 25.8446 135.927 26.1797 135.816 26.1797C135.718 26.1797 135.083 25.8386 133.912 25.1565C132.745 24.4743 132.133 24.0859 132.078 23.9913C132.031 23.9006 132.009 23.179 132.013 21.8265C132.021 20.474 132.053 19.7504 132.108 19.6558C132.159 19.569 132.772 19.1905 133.947 18.5202C135.122 17.8498 135.765 17.5146 135.875 17.5146C135.974 17.5146 136.609 17.8557 137.78 18.5379C138.947 19.2201 139.558 19.6085 139.614 19.7031C139.661 19.7898 139.683 20.5095 139.679 21.862C139.671 23.2184 139.639 23.942 139.584 24.0327C139.533 24.1234 138.92 24.5039 137.745 25.1742Z" fill="black"/>
<path d="M159.326 18.1598C159.563 18.2899 159.798 18.426 160.03 18.5679C160.11 18.6169 160.177 18.6836 160.226 18.7627C160.276 18.8417 160.306 18.931 160.314 19.0233C160.346 19.3191 160.363 19.6188 160.367 19.9224C160.371 20.226 160.36 20.5257 160.332 20.8214C160.326 20.9138 160.298 21.0035 160.251 21.0836C160.203 21.1637 160.138 21.2318 160.06 21.2828C159.835 21.4287 159.604 21.5706 159.368 21.7086C159.135 21.8466 158.901 21.9807 158.664 22.1108C158.581 22.1555 158.49 22.1804 158.396 22.1835C158.303 22.1866 158.21 22.1678 158.126 22.1286C157.854 22.0103 157.586 21.8762 157.321 21.7264C157.057 21.5805 156.803 21.4208 156.558 21.2473C156.482 21.1952 156.419 21.1259 156.374 21.0448C156.328 20.9637 156.303 20.8731 156.298 20.78C156.282 20.5119 156.274 20.2418 156.274 19.9697C156.27 19.6976 156.272 19.4275 156.28 19.1594C156.283 19.0663 156.306 18.9752 156.349 18.8931C156.392 18.811 156.454 18.7402 156.529 18.6862C156.769 18.5088 157.02 18.3432 157.28 18.1894C157.54 18.0356 157.806 17.8936 158.078 17.7635C158.162 17.7244 158.253 17.7051 158.345 17.7072C158.438 17.7092 158.529 17.7326 158.611 17.7753C158.851 17.8976 159.09 18.0257 159.326 18.1598Z" fill="black"/>
<path d="M153.4 35.6429C151.484 36.747 150.486 37.299 150.407 37.299C150.32 37.299 149.321 36.745 147.408 35.637C145.492 34.529 144.514 33.9415 144.475 33.8744C144.431 33.7995 144.412 32.656 144.416 30.4439C144.416 28.2357 144.437 27.0961 144.481 27.0252C144.524 26.9502 145.502 26.3607 147.414 25.2567C149.331 24.1565 150.328 23.6064 150.407 23.6064C150.494 23.6064 151.493 24.1585 153.406 25.2626C155.322 26.3706 156.3 26.9601 156.34 27.0311C156.383 27.106 156.403 28.2475 156.399 30.4557C156.399 32.6678 156.377 33.8074 156.334 33.8744C156.29 33.9493 155.312 34.5388 153.4 35.6429Z" fill="black"/>
<path d="M167.968 28.6815C167.117 27.743 166.204 27.5675 165.23 28.1551C165.105 28.23 165.006 28.3395 164.943 28.4704C164.879 28.6012 164.856 28.7478 164.875 28.8923C164.893 29.0369 164.954 29.1733 165.048 29.2849C165.143 29.3965 165.268 29.4787 165.407 29.5214L167.915 30.2666C168.024 30.3016 168.121 30.3604 168.199 30.4382C168.7 30.9547 168.893 31.5501 168.779 32.2244C168.76 32.3308 168.72 32.4323 168.661 32.5228C168.602 32.6133 168.526 32.6908 168.436 32.7508C167.351 33.4685 166.192 33.5946 164.958 33.1294C164.331 32.8967 164.033 32.5221 164.065 32.0056C164.069 31.9323 164.097 31.8624 164.144 31.8065C164.192 31.7505 164.256 31.7116 164.328 31.6955C164.399 31.6795 164.474 31.6872 164.541 31.7175C164.608 31.7479 164.663 31.7991 164.698 31.8636C165.147 32.6917 165.971 32.9618 167.17 32.6739C167.588 32.5714 167.856 32.3703 167.974 32.0706C168.02 31.9509 168.04 31.8227 168.032 31.6945C168.023 31.5663 167.988 31.4412 167.927 31.3275C167.865 31.2137 167.781 31.1141 167.678 31.0352C167.575 30.9563 167.456 30.8999 167.33 30.8699C166.017 30.5505 164.384 30.2962 164.159 29.1783C164.088 28.8345 164.148 28.4731 164.328 28.1574C164.509 27.8417 164.799 27.5917 165.147 27.4512C165.916 27.1318 168.371 27.0845 168.489 28.4508C168.494 28.5131 168.479 28.5754 168.448 28.6292C168.416 28.6829 168.368 28.7253 168.311 28.7507C168.253 28.776 168.19 28.7829 168.128 28.7706C168.067 28.7582 168.011 28.727 167.968 28.6815Z" fill="black"/>
<path d="M175.62 30.7313C175.623 31.0753 175.558 31.4167 175.429 31.7357C175.3 32.0547 175.11 32.3453 174.869 32.5907C174.627 32.8361 174.34 33.0316 174.023 33.1661C173.707 33.3005 173.367 33.3713 173.023 33.3743L172.502 33.3788C171.807 33.3848 171.138 33.1146 170.643 32.6275C170.147 32.1405 169.865 31.4764 169.859 30.7815L169.852 29.9298C169.849 29.5857 169.913 29.2444 170.042 28.9254C170.171 28.6064 170.362 28.3158 170.603 28.0704C170.844 27.825 171.131 27.6295 171.448 27.495C171.765 27.3606 172.105 27.2898 172.449 27.2868L172.969 27.2823C173.664 27.2763 174.333 27.5465 174.829 28.0336C175.324 28.5206 175.606 29.1846 175.612 29.8795L175.62 30.7313ZM172.731 32.7733C173.013 32.7738 173.293 32.7111 173.553 32.5888C173.814 32.4665 174.051 32.287 174.251 32.0605C174.451 31.834 174.609 31.565 174.718 31.2688C174.826 30.9726 174.882 30.6551 174.883 30.3343C174.884 29.6864 174.659 29.0647 174.257 28.6059C173.855 28.1471 173.309 27.8887 172.74 27.8878C172.458 27.8873 172.179 27.95 171.918 28.0723C171.657 28.1946 171.42 28.3741 171.221 28.6006C171.021 28.8271 170.862 29.0961 170.754 29.3923C170.645 29.6885 170.589 30.006 170.589 30.3268C170.588 30.9747 170.813 31.5964 171.215 32.0552C171.616 32.514 172.162 32.7723 172.731 32.7733Z" fill="black"/>
<path d="M177.07 33.153V27.4927C177.07 27.4725 177.074 27.4525 177.082 27.4338C177.09 27.4151 177.101 27.3982 177.115 27.3839C177.13 27.3696 177.147 27.3583 177.165 27.3506C177.184 27.3428 177.204 27.3389 177.224 27.3389H180.939C180.959 27.3389 180.979 27.3428 180.997 27.3506C181.016 27.3583 181.033 27.3696 181.047 27.3839C181.062 27.3982 181.073 27.4151 181.081 27.4338C181.088 27.4525 181.092 27.4725 181.092 27.4927V27.8475C181.092 27.8677 181.088 27.8877 181.081 27.9064C181.073 27.925 181.062 27.942 181.047 27.9563C181.033 27.9706 181.016 27.9819 180.997 27.9896C180.979 27.9973 180.959 28.0013 180.939 28.0013H177.958C177.917 28.0013 177.878 28.0175 177.849 28.0464C177.82 28.0752 177.804 28.1143 177.804 28.1551V30.0656C177.804 30.1063 177.82 30.1455 177.849 30.1743C177.878 30.2031 177.917 30.2193 177.958 30.2193H180.956C180.997 30.2193 181.036 30.2355 181.065 30.2644C181.094 30.2932 181.11 30.3323 181.11 30.3731V30.7162C181.11 30.757 181.094 30.7961 181.065 30.8249C181.036 30.8538 180.997 30.87 180.956 30.87H177.946C177.905 30.87 177.866 30.8862 177.837 30.915C177.808 30.9438 177.792 30.983 177.792 31.0237V33.153C177.792 33.1732 177.788 33.1932 177.78 33.2119C177.772 33.2306 177.761 33.2475 177.747 33.2618C177.733 33.2761 177.716 33.2874 177.697 33.2951C177.678 33.3029 177.658 33.3068 177.638 33.3068H177.224C177.183 33.3068 177.144 33.2906 177.115 33.2618C177.087 33.233 177.07 33.1938 177.07 33.153Z" fill="black"/>
<path d="M184.334 27.332C185.64 27.3242 186.365 27.3399 186.511 27.3794C186.685 27.4227 186.781 27.4858 186.801 27.5686C186.817 27.6396 186.813 27.7126 186.789 27.7875C186.772 27.8455 186.737 27.8966 186.688 27.9329C186.639 27.9692 186.579 27.9887 186.517 27.9886H185.121C185.023 27.9885 184.928 28.0268 184.858 28.0952C184.787 28.1637 184.746 28.257 184.743 28.3553C184.719 28.9507 184.733 30.3348 184.784 32.5074C184.796 33.0516 184.654 33.3256 184.358 33.3296C184.062 33.3296 183.918 33.0555 183.926 32.5074C183.958 30.3348 183.96 28.9527 183.932 28.3612C183.929 28.2629 183.888 28.1696 183.817 28.1012C183.747 28.0327 183.652 27.9945 183.554 27.9945L182.158 28.0063C182.096 28.0065 182.036 27.9869 181.987 27.9506C181.938 27.9143 181.902 27.8633 181.886 27.8052C181.858 27.7303 181.852 27.6574 181.868 27.5864C181.888 27.5036 181.984 27.4385 182.158 27.3912C182.304 27.3557 183.029 27.336 184.334 27.332Z" fill="black"/>
<path d="M191.242 27.3262C191.364 27.3262 191.475 27.3577 191.573 27.4208C191.635 27.4618 191.681 27.5246 191.703 27.5982L192.875 31.9633C192.879 31.9867 192.892 32.0078 192.91 32.0232C192.929 32.0386 192.952 32.0473 192.976 32.048C193 32.0486 193.023 32.0413 193.042 32.027C193.061 32.0127 193.075 31.9923 193.082 31.9692L194.401 27.545C194.411 27.5085 194.429 27.4745 194.453 27.4449C194.477 27.4153 194.507 27.3907 194.54 27.3726C194.574 27.3545 194.611 27.3431 194.649 27.3392C194.687 27.3353 194.725 27.3389 194.761 27.3498L194.962 27.409C195.03 27.4295 195.086 27.4758 195.12 27.5379C195.153 27.6 195.16 27.6727 195.14 27.7402L193.578 32.9629C193.542 33.0862 193.466 33.194 193.362 33.2699C193.259 33.3457 193.133 33.3854 193.004 33.3827C192.876 33.38 192.752 33.3351 192.652 33.255C192.551 33.1749 192.48 33.0639 192.449 32.9393C191.739 30.1633 191.337 28.7753 191.242 28.7753C191.147 28.7753 190.741 30.1633 190.024 32.9393C189.992 33.0637 189.92 33.1742 189.819 33.2538C189.718 33.3333 189.594 33.3775 189.466 33.3796C189.337 33.3816 189.212 33.3413 189.108 33.2649C189.005 33.1886 188.93 33.0804 188.894 32.957L187.344 27.7343C187.324 27.6668 187.331 27.5941 187.365 27.532C187.398 27.4699 187.454 27.4236 187.522 27.4031L187.723 27.3439C187.759 27.333 187.798 27.3294 187.836 27.3333C187.873 27.3372 187.91 27.3486 187.944 27.3667C187.977 27.3848 188.007 27.4094 188.031 27.439C188.055 27.4685 188.073 27.5026 188.084 27.5391L189.397 31.9692C189.403 31.9923 189.417 32.0127 189.436 32.027C189.455 32.0413 189.479 32.0486 189.503 32.048C189.526 32.0473 189.549 32.0386 189.568 32.0232C189.586 32.0078 189.599 31.9867 189.604 31.9633L190.781 27.5982C190.803 27.5246 190.849 27.4618 190.911 27.4208C191.009 27.3577 191.12 27.3262 191.242 27.3262Z" fill="black"/>
<path d="M198.003 27.3262C198.243 27.3301 198.417 27.3991 198.523 27.5332C198.535 27.5493 198.545 27.5652 198.553 27.5805L200.724 33.0102C200.74 33.0511 200.744 33.0957 200.736 33.1388C200.728 33.182 200.708 33.222 200.679 33.2546C200.649 33.2871 200.611 33.3108 200.569 33.323C200.527 33.3352 200.482 33.3355 200.44 33.3237L200.209 33.2527C200.135 33.2307 200.068 33.192 200.011 33.1397C199.955 33.0874 199.911 33.0229 199.884 32.9511L199.47 31.9219C199.428 31.8181 199.357 31.7288 199.265 31.6647C199.174 31.6007 199.066 31.5647 198.955 31.5611C198.809 31.5572 198.484 31.5532 197.979 31.5493C197.479 31.5493 197.155 31.5493 197.009 31.5493C196.898 31.5512 196.79 31.5858 196.697 31.6488C196.605 31.7118 196.532 31.8006 196.489 31.9042L196.063 32.9274C196.035 32.9992 195.992 33.0638 195.935 33.1161C195.879 33.1684 195.811 33.207 195.738 33.2291L195.507 33.2941C195.465 33.3059 195.42 33.3056 195.378 33.2934C195.336 33.2812 195.298 33.2575 195.268 33.225C195.239 33.1925 195.219 33.1524 195.211 33.1092C195.203 33.0661 195.207 33.0216 195.223 32.9807L197.453 27.5746C197.461 27.5593 197.47 27.5434 197.482 27.5273C197.593 27.3932 197.766 27.3262 198.003 27.3262ZM198.033 30.9637C198.344 30.9558 198.563 30.9381 198.689 30.9105C198.729 30.9032 198.767 30.8875 198.8 30.8644C198.833 30.8414 198.861 30.8115 198.882 30.7767C198.902 30.742 198.915 30.7033 198.92 30.6631C198.924 30.6229 198.92 30.5822 198.908 30.5438C198.451 29.1242 198.129 28.4165 197.944 28.4204C197.762 28.4283 197.492 29.1558 197.133 30.6029C197.123 30.6424 197.121 30.6836 197.128 30.7238C197.135 30.764 197.15 30.8022 197.174 30.8359C197.197 30.8696 197.227 30.8979 197.261 30.9189C197.296 30.94 197.335 30.9532 197.376 30.9578C197.502 30.9736 197.721 30.9756 198.033 30.9637Z" fill="black"/>
<path d="M206.609 33.2051C206.619 33.2209 206.623 33.2392 206.623 33.2577C206.622 33.2762 206.616 33.2942 206.605 33.3093C206.595 33.3244 206.58 33.336 206.563 33.3427C206.545 33.3495 206.526 33.351 206.508 33.3471L205.84 33.2111C205.829 33.2093 205.819 33.2052 205.809 33.1991C205.8 33.193 205.793 33.185 205.787 33.1756L204.551 31.0995C204.497 31.0076 204.42 30.9314 204.328 30.8785C204.235 30.8256 204.131 30.7978 204.024 30.7979H202.829C202.74 30.7979 202.654 30.8334 202.591 30.8966C202.528 30.9598 202.492 31.0456 202.492 31.135V33.1283C202.492 33.1816 202.471 33.2327 202.433 33.2705C202.396 33.3082 202.344 33.3294 202.291 33.3294H202.078C201.993 33.3294 201.912 33.2951 201.852 33.2341C201.792 33.1731 201.759 33.0903 201.759 33.004V28.0357C201.759 27.9358 201.779 27.8369 201.817 27.7449C201.856 27.6529 201.913 27.5697 201.984 27.5002C202.055 27.4306 202.139 27.3762 202.232 27.3402C202.324 27.3042 202.423 27.2872 202.522 27.2904L204.959 27.3673C205.338 27.3794 205.702 27.5218 205.988 27.7707C206.275 28.0196 206.467 28.3597 206.532 28.7336C206.682 29.5814 206.325 30.232 205.461 30.6855C205.431 30.7004 205.404 30.7216 205.383 30.7478C205.361 30.774 205.345 30.8046 205.336 30.8378C205.327 30.871 205.324 30.9061 205.328 30.9409C205.332 30.9757 205.344 31.0096 205.361 31.0404L206.609 33.2051ZM202.492 28.2427L202.504 29.9816C202.504 30.0459 202.53 30.1076 202.575 30.1531C202.621 30.1986 202.682 30.2241 202.747 30.2241L204.474 30.2182C204.82 30.2165 205.152 30.1047 205.396 29.9072C205.64 29.7098 205.776 29.443 205.775 29.1654V29.0353C205.774 28.8977 205.74 28.7617 205.673 28.635C205.607 28.5082 205.51 28.3932 205.388 28.2966C205.266 28.1999 205.122 28.1234 204.963 28.0716C204.804 28.0197 204.634 27.9934 204.462 27.9943L202.735 28.0002C202.67 28.0002 202.609 28.0257 202.563 28.0712C202.518 28.1167 202.492 28.1784 202.492 28.2427Z" fill="black"/>
<path d="M212.772 32.8218V33.1649C212.772 33.2057 212.756 33.2448 212.727 33.2736C212.698 33.3025 212.659 33.3187 212.618 33.3187H208.271C208.23 33.3187 208.191 33.3025 208.162 33.2736C208.133 33.2448 208.117 33.2057 208.117 33.1649V27.4927C208.117 27.4725 208.121 27.4525 208.129 27.4338C208.137 27.4151 208.148 27.3982 208.162 27.3839C208.177 27.3696 208.193 27.3583 208.212 27.3506C208.231 27.3428 208.251 27.3389 208.271 27.3389H212.388C212.408 27.3389 212.428 27.3428 212.446 27.3506C212.465 27.3583 212.482 27.3696 212.496 27.3839C212.511 27.3982 212.522 27.4151 212.53 27.4338C212.537 27.4525 212.541 27.4725 212.541 27.4927V27.8475C212.541 27.8883 212.525 27.9274 212.496 27.9563C212.468 27.9851 212.428 28.0013 212.388 28.0013H209.093C209.052 28.0013 209.013 28.0175 208.984 28.0464C208.956 28.0752 208.939 28.1143 208.939 28.1551V29.7698C208.939 29.79 208.943 29.81 208.951 29.8287C208.959 29.8473 208.97 29.8643 208.984 29.8786C208.999 29.8928 209.016 29.9042 209.034 29.9119C209.053 29.9196 209.073 29.9236 209.093 29.9236H212.163C212.204 29.9236 212.243 29.9398 212.272 29.9686C212.3 29.9975 212.317 30.0366 212.317 30.0774V30.4323C212.317 30.4731 212.3 30.5122 212.272 30.541C212.243 30.5699 212.204 30.5861 212.163 30.5861H209.075C209.035 30.5861 208.995 30.6023 208.967 30.6311C208.938 30.6599 208.922 30.6991 208.922 30.7398V32.5143C208.922 32.555 208.938 32.5942 208.967 32.623C208.995 32.6518 209.035 32.668 209.075 32.668H212.618C212.659 32.668 212.698 32.6842 212.727 32.7131C212.756 32.7419 212.772 32.781 212.772 32.8218Z" fill="black"/>
<path d="M138.855 34.6727C139.06 34.791 139.295 34.9014 139.559 35.0039C139.656 35.0421 139.738 35.1083 139.796 35.1939C139.855 35.2794 139.885 35.3802 139.884 35.483V37.2456C139.884 37.3606 139.854 37.4732 139.797 37.5719C139.739 37.6706 139.657 37.7519 139.559 37.8075L138.145 38.6237C138.062 38.672 137.968 38.7008 137.871 38.7079C137.773 38.7151 137.675 38.7005 137.583 38.6651C137.56 38.6573 137.297 38.5074 136.797 38.2156C136.296 37.9238 136.036 37.77 136.016 37.7543C135.94 37.6919 135.878 37.6139 135.836 37.5258C135.794 37.4378 135.773 37.3421 135.773 37.2456L135.785 35.6131C135.784 35.5 135.814 35.3884 135.871 35.2896C135.928 35.1909 136.011 35.1087 136.111 35.0512L137.643 34.1818C137.732 34.1298 137.835 34.1065 137.939 34.115C138.042 34.1234 138.141 34.1632 138.222 34.2291C138.439 34.4065 138.65 34.5544 138.855 34.6727Z" fill="black"/>
<path d="M400.724 33.7143C400.724 33.7657 400.704 33.8149 400.667 33.8512C400.631 33.8875 400.582 33.9079 400.531 33.9079H335.421C335.396 33.9079 335.371 33.9029 335.347 33.8932C335.324 33.8835 335.302 33.8692 335.284 33.8512C335.266 33.8332 335.252 33.8119 335.242 33.7884C335.233 33.7649 335.228 33.7397 335.228 33.7143V13.9055C335.228 13.8542 335.248 13.8049 335.284 13.7686C335.321 13.7323 335.37 13.7119 335.421 13.7119H400.531C400.582 13.7119 400.631 13.7323 400.667 13.7686C400.704 13.8049 400.724 13.8542 400.724 13.9055V33.7143ZM338.083 28.0749C338.043 28.138 338.026 28.2133 338.037 28.2873C338.047 28.3613 338.084 28.4291 338.14 28.4785C339.889 30.0165 341.809 30.5719 343.899 30.1447C345.41 29.8338 346.629 28.5549 346.684 26.8778C346.765 24.4126 344.592 23.7527 342.405 23.2318C341.096 22.9182 339.364 22.4328 339.236 20.8293C339.122 19.3813 340.103 18.3151 341.464 18.0969C343.064 17.8369 344.488 18.2732 345.737 19.4058C345.746 19.4136 345.756 19.4193 345.766 19.4227C345.777 19.4261 345.789 19.4271 345.8 19.4255C345.811 19.424 345.822 19.4199 345.831 19.4137C345.841 19.4074 345.849 19.3992 345.855 19.3895L346.247 18.7814C346.256 18.7686 346.259 18.7532 346.257 18.7378C346.255 18.7223 346.248 18.7078 346.236 18.6968C344.996 17.6188 343.56 17.1352 341.928 17.2461C339.348 17.4233 337.477 19.7385 338.819 22.2201C339.689 23.829 342.833 24.1753 343.752 24.4971C345.285 25.0371 346.182 25.8197 345.746 27.5732C345.432 28.8357 344.079 29.4657 342.803 29.4929C341.214 29.5239 339.83 28.953 338.65 27.7804C338.622 27.7529 338.588 27.7319 338.552 27.7189C338.515 27.706 338.475 27.7014 338.437 27.7056C338.398 27.7098 338.361 27.7226 338.328 27.7431C338.295 27.7636 338.267 27.7913 338.246 27.824L338.083 28.0749ZM355.017 26.4305C355.023 26.4305 355.029 26.4296 355.036 26.4278C355.045 26.4261 355.052 26.4232 355.058 26.4194C355.064 26.4156 355.069 26.411 355.072 26.406L359.708 19.2204C359.719 19.2043 359.735 19.1922 359.753 19.1856C359.771 19.179 359.791 19.1784 359.81 19.1839C359.829 19.1893 359.845 19.2005 359.857 19.2159C359.869 19.2313 359.876 19.25 359.877 19.2695V29.7738C359.877 29.8635 359.912 29.9495 359.975 30.0129C360.038 30.0763 360.123 30.112 360.212 30.112H360.362C360.45 30.112 360.534 30.0772 360.595 30.0153C360.657 29.9534 360.692 29.8695 360.692 29.782V17.7206C360.692 17.6561 360.672 17.5932 360.634 17.5409C360.596 17.4885 360.543 17.4493 360.482 17.4288C360.106 17.3033 359.882 17.4451 359.672 17.7642C359.61 17.8587 358.087 20.2558 355.102 24.9553C355.089 24.9744 355.071 24.9888 355.05 24.9962C355.039 24.9998 355.028 25.0016 355.017 25.0016C355.005 25.0016 354.993 24.9998 354.982 24.9962C354.961 24.9888 354.943 24.9744 354.93 24.9553C351.943 20.2558 350.419 17.8587 350.357 17.7642C350.147 17.4451 349.923 17.3033 349.547 17.4288C349.485 17.4495 349.432 17.4891 349.394 17.542C349.356 17.5949 349.336 17.6583 349.337 17.7233L349.342 29.7847C349.343 29.8718 349.378 29.955 349.44 30.0163C349.502 30.0776 349.585 30.112 349.672 30.112H349.822C349.911 30.112 349.997 30.0763 350.06 30.0129C350.122 29.9495 350.158 29.8635 350.158 29.7738L350.155 19.2695C350.156 19.25 350.163 19.2313 350.175 19.2159C350.187 19.2005 350.203 19.1893 350.222 19.1839C350.241 19.1784 350.261 19.179 350.279 19.1856C350.297 19.1922 350.313 19.2043 350.324 19.2204L354.96 26.406C354.963 26.411 354.967 26.4156 354.973 26.4194C354.98 26.4232 354.987 26.4261 354.995 26.4278C355.003 26.4296 355.01 26.4305 355.017 26.4305ZM368.988 26.5805C371.018 26.5805 372.054 26.5796 372.094 26.5778C372.165 26.5739 372.235 26.5921 372.295 26.6297C372.355 26.6673 372.402 26.7225 372.429 26.7878L373.702 29.872C373.73 29.939 373.777 29.9963 373.837 30.0366C373.897 30.0769 373.968 30.0984 374.041 30.0983H374.354C374.385 30.0986 374.416 30.0912 374.443 30.0767C374.47 30.0622 374.493 30.0411 374.51 30.0154C374.527 29.9897 374.538 29.9601 374.541 29.9293C374.543 29.8986 374.538 29.8676 374.526 29.8393C374.33 29.3793 372.671 25.3879 369.549 17.8651C369.413 17.536 369.228 17.3715 368.996 17.3715C368.763 17.3715 368.579 17.536 368.442 17.8651C365.308 25.3825 363.643 29.3711 363.446 29.8311C363.434 29.8594 363.429 29.8904 363.432 29.9211C363.435 29.9519 363.445 29.9815 363.462 30.0072C363.479 30.0329 363.502 30.054 363.53 30.0685C363.557 30.083 363.587 30.0904 363.618 30.0902H363.932C364.004 30.0902 364.075 30.0687 364.135 30.0284C364.195 29.9881 364.242 29.9308 364.27 29.8638L365.546 26.7823C365.573 26.7166 365.62 26.661 365.681 26.6234C365.742 26.5857 365.813 26.5679 365.884 26.5724C365.922 26.576 366.957 26.5787 368.988 26.5805ZM386.83 30.1392C386.846 30.1394 386.861 30.1352 386.874 30.127C386.887 30.1189 386.898 30.1071 386.905 30.0931C386.912 30.079 386.915 30.0632 386.914 30.0473C386.913 30.0314 386.907 30.016 386.898 30.0029L383.171 24.7644C383.165 24.7564 383.161 24.7471 383.16 24.7373C383.159 24.7276 383.161 24.7177 383.164 24.7087C383.168 24.6996 383.174 24.6917 383.182 24.6857C383.19 24.6797 383.199 24.6758 383.209 24.6744C388.003 23.9381 387.61 17.7833 382.931 17.4915C382.183 17.4442 380.364 17.4206 377.471 17.4206C377.427 17.4206 377.385 17.4381 377.354 17.4693C377.322 17.5005 377.305 17.5428 377.305 17.587V29.8993C377.305 29.9607 377.329 30.0197 377.373 30.0632C377.416 30.1066 377.475 30.1311 377.537 30.1311H377.978C378.029 30.1311 378.078 30.1109 378.113 30.0751C378.149 30.0394 378.169 29.9908 378.169 29.9402V24.9962C378.169 24.9585 378.184 24.9225 378.21 24.8959C378.236 24.8693 378.271 24.8544 378.308 24.8544H382.033C382.085 24.8544 382.136 24.8667 382.182 24.8904C382.228 24.9141 382.268 24.9485 382.298 24.9907L385.786 29.8911C385.84 29.9678 385.912 30.0303 385.996 30.0734C386.079 30.1166 386.172 30.1392 386.266 30.1392H386.83ZM393.629 30.1501C393.894 30.1501 394.027 30.0556 394.027 29.8665C394.05 27.1541 394.064 23.3618 394.068 18.4896C394.068 18.4401 394.087 18.3927 394.122 18.3575C394.156 18.3223 394.204 18.3021 394.253 18.3014L397.662 18.296C397.768 18.2961 397.87 18.2553 397.946 18.1822C398.023 18.109 398.069 18.0091 398.074 17.9033V17.8896C398.076 17.8386 398.068 17.7877 398.049 17.74C398.031 17.6922 398.004 17.6486 397.968 17.6119C397.933 17.5752 397.89 17.546 397.843 17.5263C397.796 17.5065 397.746 17.4965 397.694 17.497C396.369 17.5042 395.018 17.497 393.642 17.4751C392.264 17.4933 390.912 17.4979 389.587 17.4888C389.536 17.4884 389.485 17.4983 389.438 17.5181C389.391 17.5379 389.349 17.567 389.313 17.6037C389.278 17.6405 389.25 17.684 389.232 17.7318C389.214 17.7795 389.206 17.8305 389.208 17.8815V17.8951C389.213 18.001 389.259 18.1009 389.335 18.174C389.412 18.2471 389.514 18.2879 389.62 18.2878L393.029 18.3014C393.078 18.3028 393.124 18.3233 393.158 18.3584C393.192 18.3936 393.211 18.4406 393.211 18.4896C393.206 23.3618 393.211 27.1541 393.228 29.8665C393.229 30.0556 393.363 30.1501 393.629 30.1501Z" fill="black"/>
<path d="M300.558 30.3771C299.725 30.3553 298.906 30.1624 298.145 29.8095C297.385 29.4566 296.699 28.9506 296.127 28.3203C295.554 27.69 295.107 26.9478 294.809 26.1361C294.512 25.3244 294.37 24.4591 294.393 23.5895C294.439 21.8334 295.151 20.1666 296.372 18.956C297.593 17.7453 299.223 17.0899 300.904 17.1339C301.737 17.1557 302.556 17.3486 303.317 17.7015C304.077 18.0544 304.763 18.5604 305.335 19.1907C305.908 19.821 306.356 20.5631 306.653 21.3749C306.95 22.1866 307.092 23.0519 307.069 23.9215C307.023 25.6776 306.311 27.3443 305.09 28.555C303.869 29.7657 302.239 30.4211 300.558 30.3771ZM300.548 28.1176C301.098 28.1406 301.647 28.0506 302.165 27.8527C302.682 27.6548 303.157 27.3528 303.563 26.964C303.969 26.5753 304.297 26.1073 304.53 25.5869C304.763 25.0665 304.895 24.5038 304.919 23.931C304.943 23.3582 304.858 22.7864 304.67 22.2483C304.482 21.7103 304.193 21.2165 303.821 20.7951C303.45 20.3738 303.001 20.0331 302.503 19.7926C302.004 19.5521 301.464 19.4165 300.914 19.3934C300.364 19.3704 299.815 19.4604 299.297 19.6583C298.78 19.8562 298.305 20.1582 297.899 20.5469C297.493 20.9357 297.165 21.4036 296.932 21.924C296.699 22.4445 296.567 23.0071 296.543 23.58C296.519 24.1528 296.604 24.7246 296.792 25.2626C296.98 25.8007 297.269 26.2945 297.641 26.7158C298.013 27.1372 298.461 27.4778 298.96 27.7184C299.458 27.9589 299.998 28.0945 300.548 28.1176Z" fill="black"/>
<path d="M257.38 29.8828V29.7464L257.426 17.535C257.426 17.4986 257.441 17.4636 257.467 17.4376C257.493 17.4116 257.528 17.3966 257.565 17.3959C260.71 17.3341 262.703 17.3487 263.543 17.4396C265.97 17.7013 267.328 19.3021 267.241 21.74C267.181 23.4344 266.272 24.6206 264.514 25.2987C264.5 25.3044 264.487 25.313 264.477 25.3241C264.467 25.3352 264.459 25.3484 264.455 25.3626C264.451 25.3768 264.45 25.3918 264.453 25.4062C264.455 25.4207 264.461 25.4343 264.47 25.446L267.729 30.0246C267.735 30.0336 267.739 30.0442 267.74 30.0553C267.741 30.0664 267.739 30.0776 267.734 30.0875C267.729 30.0974 267.721 30.1057 267.711 30.1114C267.702 30.1172 267.691 30.1201 267.68 30.12H265.165C265.141 30.1201 265.117 30.1141 265.096 30.1027C265.074 30.0913 265.056 30.0747 265.043 30.0546L262.256 25.9477C262.206 25.8754 262.14 25.8162 262.062 25.7753C261.985 25.7344 261.899 25.7131 261.811 25.7132H259.69C259.646 25.7132 259.603 25.7307 259.572 25.7619C259.541 25.7931 259.523 25.8354 259.523 25.8796V29.9537C259.523 29.9978 259.505 30.0401 259.474 30.0713C259.442 30.1025 259.399 30.12 259.354 30.12H257.663C257.616 30.1199 257.57 30.1072 257.53 30.0832C257.49 30.0592 257.457 30.0248 257.434 29.9837L257.38 29.8828ZM259.507 19.5639L259.534 23.5725C259.534 23.6 259.545 23.6264 259.565 23.6458C259.584 23.6652 259.61 23.6762 259.638 23.6762L262.864 23.6543C263.153 23.6524 263.439 23.5983 263.705 23.4951C263.972 23.3919 264.213 23.2417 264.417 23.053C264.62 22.8644 264.78 22.6409 264.889 22.3955C264.998 22.1501 265.053 21.8875 265.051 21.6227V21.4373C265.047 20.9031 264.811 20.3924 264.396 20.0176C263.981 19.6428 263.42 19.4345 262.837 19.4384L259.611 19.4603C259.583 19.4603 259.557 19.4712 259.537 19.4906C259.518 19.51 259.507 19.5364 259.507 19.5639Z" fill="black"/>
<path d="M277.964 23.7374C277.964 24.1265 277.958 24.4273 277.947 24.64C277.947 24.6663 277.936 24.6913 277.917 24.7096C277.898 24.728 277.873 24.7382 277.846 24.7382H272.062C272.028 24.7382 271.994 24.752 271.97 24.7766C271.945 24.8011 271.932 24.8344 271.932 24.8691V27.9206C271.932 27.9539 271.945 27.9858 271.968 28.0093C271.992 28.0328 272.024 28.046 272.057 28.046H278.542C278.594 28.046 278.644 28.0667 278.681 28.1035C278.717 28.1404 278.738 28.1903 278.738 28.2424V29.914C278.738 29.9654 278.718 30.0146 278.681 30.0509C278.645 30.0872 278.596 30.1076 278.545 30.1076L269.965 30.1049C269.931 30.1043 269.898 30.0911 269.874 30.0678C269.849 30.0446 269.834 30.013 269.832 29.9795C269.83 29.9704 269.829 27.8897 269.829 23.7374C269.829 19.5869 269.829 17.5072 269.829 17.4981C269.831 17.4645 269.846 17.433 269.871 17.4097C269.896 17.3865 269.928 17.3732 269.963 17.3726L278.542 17.3672C278.593 17.3672 278.642 17.3876 278.679 17.4239C278.715 17.4602 278.735 17.5095 278.735 17.5608V19.2324C278.735 19.284 278.715 19.3336 278.679 19.3703C278.643 19.4071 278.593 19.4281 278.542 19.4288L272.057 19.4315C272.024 19.4315 271.992 19.4447 271.968 19.4683C271.945 19.4918 271.932 19.5237 271.932 19.557V22.6084C271.932 22.6432 271.945 22.6765 271.97 22.701C271.994 22.7255 272.028 22.7393 272.062 22.7393L277.846 22.7366C277.873 22.7366 277.898 22.7469 277.917 22.7652C277.936 22.7835 277.947 22.8085 277.947 22.8348C277.958 23.0475 277.964 23.3484 277.964 23.7374Z" fill="black"/>
<path d="M283.322 30.1182H281.416C281.39 30.1182 281.366 30.1081 281.348 30.0902C281.33 30.0723 281.32 30.048 281.32 30.0227V17.4704C281.32 17.4451 281.33 17.4209 281.348 17.403C281.366 17.3851 281.39 17.375 281.416 17.375H283.327C283.342 17.3753 283.357 17.3792 283.37 17.3863C283.384 17.3934 283.395 17.4035 283.404 17.4159L289.531 26.0223C289.543 26.0395 289.56 26.0525 289.579 26.0592C289.599 26.066 289.62 26.0661 289.64 26.0596C289.66 26.0531 289.677 26.0404 289.689 26.0233C289.701 26.0062 289.707 25.9858 289.706 25.965V17.4732C289.706 17.4479 289.716 17.4236 289.734 17.4057C289.752 17.3878 289.776 17.3777 289.801 17.3777H291.754C291.779 17.3777 291.803 17.3878 291.821 17.4057C291.839 17.4236 291.849 17.4479 291.849 17.4732V30.02C291.849 30.0453 291.839 30.0696 291.821 30.0875C291.803 30.1054 291.779 30.1154 291.754 30.1154H289.867C289.852 30.1151 289.837 30.1113 289.824 30.1042C289.81 30.097 289.799 30.0869 289.79 30.0745L283.592 21.3673C283.58 21.3501 283.563 21.3371 283.544 21.3303C283.524 21.3236 283.503 21.3234 283.483 21.3299C283.463 21.3364 283.446 21.3492 283.434 21.3662C283.422 21.3833 283.417 21.4038 283.417 21.4246V30.0227C283.417 30.048 283.407 30.0723 283.389 30.0902C283.372 30.1081 283.347 30.1182 283.322 30.1182Z" fill="black"/>
<path d="M315.457 26.995L311.893 21.1211C311.882 21.1046 311.867 21.0919 311.849 21.0849C311.831 21.0778 311.811 21.0768 311.792 21.082C311.773 21.0873 311.757 21.0984 311.745 21.1138C311.733 21.1292 311.727 21.148 311.726 21.1675V30.0247C311.726 30.0486 311.717 30.0715 311.7 30.0883C311.683 30.1052 311.66 30.1147 311.636 30.1147H309.711C309.687 30.1147 309.664 30.1052 309.647 30.0883C309.631 30.0715 309.621 30.0486 309.621 30.0247V17.467C309.621 17.4431 309.631 17.4202 309.647 17.4033C309.664 17.3865 309.687 17.377 309.711 17.377H311.86C311.876 17.3766 311.891 17.3805 311.905 17.3882C311.919 17.3958 311.931 17.407 311.939 17.4206L315.454 23.2127C315.462 23.2263 315.473 23.2376 315.487 23.2454C315.501 23.2532 315.516 23.2573 315.532 23.2573C315.548 23.2573 315.563 23.2532 315.577 23.2454C315.59 23.2376 315.602 23.2263 315.61 23.2127L318.95 17.4233C318.958 17.4092 318.969 17.3975 318.983 17.3893C318.997 17.3812 319.013 17.3769 319.029 17.377H321.061C321.085 17.377 321.108 17.3865 321.124 17.4033C321.141 17.4202 321.151 17.4431 321.151 17.467V30.0274C321.151 30.0513 321.141 30.0742 321.124 30.0911C321.108 30.1079 321.085 30.1174 321.061 30.1174H319.234C319.21 30.1174 319.187 30.1079 319.17 30.0911C319.153 30.0742 319.144 30.0513 319.144 30.0274V21.2138C319.144 21.1938 319.137 21.1742 319.125 21.1583C319.113 21.1424 319.096 21.131 319.076 21.126C319.057 21.121 319.036 21.1226 319.018 21.1306C318.999 21.1386 318.984 21.1526 318.975 21.1702L315.612 26.995C315.604 27.0086 315.593 27.0199 315.579 27.0277C315.566 27.0355 315.55 27.0397 315.535 27.0397C315.519 27.0397 315.503 27.0355 315.49 27.0277C315.476 27.0199 315.465 27.0086 315.457 26.995Z" fill="black"/>
<path d="M323.742 23.743C323.736 19.5889 323.733 17.5082 323.733 17.501C323.735 17.4669 323.749 17.4347 323.774 17.4109C323.799 17.387 323.832 17.3734 323.867 17.3728L332.454 17.3564C332.506 17.3564 332.555 17.3768 332.591 17.4132C332.627 17.4495 332.648 17.4987 332.648 17.5501L332.651 19.2244C332.651 19.2765 332.63 19.3264 332.593 19.3633C332.556 19.4001 332.506 19.4208 332.454 19.4208L325.964 19.4289C325.948 19.4289 325.931 19.4322 325.916 19.4385C325.901 19.4448 325.887 19.454 325.875 19.4657C325.864 19.4773 325.854 19.4912 325.848 19.5064C325.842 19.5216 325.839 19.5379 325.839 19.5544L325.844 22.6086C325.844 22.6433 325.858 22.6766 325.882 22.7012C325.907 22.7257 325.94 22.7395 325.975 22.7395L331.762 22.7313C331.775 22.731 331.788 22.7332 331.8 22.7379C331.813 22.7427 331.824 22.7498 331.834 22.7589C331.843 22.7681 331.851 22.779 331.857 22.7911C331.862 22.8032 331.865 22.8162 331.865 22.8295C331.874 23.044 331.88 23.3449 331.882 23.7321C331.882 24.1212 331.877 24.423 331.868 24.6375C331.868 24.6507 331.865 24.6638 331.859 24.6759C331.854 24.688 331.846 24.6989 331.837 24.708C331.827 24.7172 331.816 24.7243 331.803 24.729C331.791 24.7338 331.778 24.736 331.764 24.7357L325.978 24.7411C325.961 24.7411 325.943 24.7445 325.928 24.7511C325.912 24.7576 325.897 24.7673 325.885 24.7794C325.873 24.7916 325.863 24.806 325.857 24.8219C325.85 24.8378 325.847 24.8548 325.847 24.872L325.85 27.9262C325.85 27.9595 325.863 27.9914 325.886 28.0149C325.91 28.0384 325.942 28.0517 325.975 28.0517L332.465 28.0435C332.491 28.0435 332.517 28.0486 332.54 28.0584C332.564 28.0683 332.586 28.0828 332.604 28.101C332.622 28.1192 332.637 28.1409 332.647 28.1647C332.656 28.1885 332.662 28.214 332.662 28.2398L332.664 29.9142C332.664 29.9655 332.644 30.0148 332.608 30.0511C332.571 30.0874 332.522 30.1078 332.471 30.1078L323.883 30.1133C323.849 30.1127 323.816 30.0994 323.791 30.0762C323.767 30.0529 323.752 30.0214 323.75 29.9878C323.75 29.9805 323.747 27.8989 323.742 23.743Z" fill="black"/>
<path d="M378.149 18.5117C378.149 18.4825 378.155 18.4535 378.165 18.4263C378.176 18.3992 378.193 18.3746 378.213 18.3538C378.234 18.333 378.258 18.3164 378.285 18.3052C378.312 18.2939 378.341 18.2881 378.37 18.2881L382.556 18.2608C383.409 18.2549 384.229 18.54 384.836 19.0534C385.443 19.5667 385.787 20.2665 385.793 20.9987V21.2387C385.798 21.9713 385.464 22.6761 384.864 23.1983C384.264 23.7204 383.448 24.017 382.594 24.0229L378.408 24.0529C378.35 24.0529 378.295 24.03 378.253 23.9892C378.212 23.9484 378.188 23.8929 378.188 23.8348L378.149 18.5117Z" fill="black"/>
<path d="M366.017 25.6049L368.867 18.7302C368.876 18.709 368.89 18.6907 368.909 18.6779C368.928 18.6651 368.951 18.6582 368.973 18.6582C368.996 18.6582 369.019 18.6651 369.038 18.6779C369.057 18.6907 369.071 18.709 369.08 18.7302L371.93 25.6049C371.937 25.6224 371.939 25.6413 371.938 25.6601C371.936 25.6788 371.929 25.6968 371.919 25.7125C371.908 25.7281 371.894 25.7409 371.877 25.7498C371.861 25.7586 371.842 25.7632 371.823 25.7631H366.124C366.105 25.7632 366.086 25.7586 366.07 25.7498C366.053 25.7409 366.039 25.7281 366.028 25.7125C366.018 25.6968 366.011 25.6788 366.009 25.6601C366.007 25.6413 366.01 25.6224 366.017 25.6049Z" fill="black"/>
</svg>
